<?xml version="1.0" encoding="UTF-8"?>
<!DOCTYPE svg PUBLIC "-//W3C//DTD SVG 1.1//EN" "http://www.w3.org/Graphics/SVG/1.1/DTD/svg11.dtd">
<svg xmlns="http://www.w3.org/2000/svg" version="1.1" width="264px" height="242px" style="shape-rendering:geometricPrecision; text-rendering:geometricPrecision; image-rendering:optimizeQuality; fill-rule:evenodd; clip-rule:evenodd" xmlns:xlink="http://www.w3.org/1999/xlink">
<g><path style="opacity:0.004" fill="#fefffe" d="M 260.5,4.5 C 261.833,5.16667 261.833,5.16667 260.5,4.5 Z"/></g>
<g><path style="opacity:0.004" fill="#fefffe" d="M 20.5,5.5 C 21.8333,6.16667 21.8333,6.16667 20.5,5.5 Z"/></g>
<g><path style="opacity:0.004" fill="#fefffe" d="M 176.5,7.5 C 177.833,8.16667 177.833,8.16667 176.5,7.5 Z"/></g>
<g><path style="opacity:0.004" fill="#fefffe" d="M 20.5,10.5 C 21.8333,11.1667 21.8333,11.1667 20.5,10.5 Z"/></g>
<g><path style="opacity:0.004" fill="#fefffe" d="M 227.5,11.5 C 228.833,12.1667 228.833,12.1667 227.5,11.5 Z"/></g>
<g><path style="opacity:0.004" fill="#fefffe" d="M 41.5,12.5 C 42.8333,13.1667 42.8333,13.1667 41.5,12.5 Z"/></g>
<g><path style="opacity:0.004" fill="#fefffe" d="M 107.5,14.5 C 108.833,15.1667 108.833,15.1667 107.5,14.5 Z"/></g>
<g><path style="opacity:0.004" fill="#fefffe" d="M 248.5,17.5 C 249.833,18.1667 249.833,18.1667 248.5,17.5 Z"/></g>
<g><path style="opacity:0.004" fill="#fefffe" d="M 149.5,22.5 C 150.833,23.1667 150.833,23.1667 149.5,22.5 Z"/></g>
<g><path style="opacity:0.004" fill="#fefffe" d="M 80.5,31.5 C 81.8333,32.1667 81.8333,32.1667 80.5,31.5 Z"/></g>
<g><path style="opacity:0.004" fill="#fefffe" d="M 113.5,31.5 C 114.833,32.1667 114.833,32.1667 113.5,31.5 Z"/></g>
<g><path style="opacity:0.004" fill="#fefffe" d="M 128.5,32.5 C 129.833,33.1667 129.833,33.1667 128.5,32.5 Z"/></g>
<g><path style="opacity:0.004" fill="#fefffe" d="M 152.5,33.5 C 153.833,34.1667 153.833,34.1667 152.5,33.5 Z"/></g>
<g><path style="opacity:0.004" fill="#000000" d="M 145.5,38.5 C 146.833,39.1667 146.833,39.1667 145.5,38.5 Z"/></g>
<g><path style="opacity:0.004" fill="#fefffe" d="M -0.5,39.5 C 0.833333,40.1667 0.833333,40.1667 -0.5,39.5 Z"/></g>
<g><path style="opacity:0.004" fill="#fefffe" d="M 47.5,39.5 C 48.8333,40.1667 48.8333,40.1667 47.5,39.5 Z"/></g>
<g><path style="opacity:0.012" fill="#000000" d="M 150.5,39.5 C 151.833,40.1667 151.833,40.1667 150.5,39.5 Z"/></g>
<g><path style="opacity:0.004" fill="#fefffe" d="M 41.5,40.5 C 42.8333,41.1667 42.8333,41.1667 41.5,40.5 Z"/></g>
<g><path style="opacity:0.004" fill="#fefffe" d="M 224.5,40.5 C 225.833,41.1667 225.833,41.1667 224.5,40.5 Z"/></g>
<g><path style="opacity:1" fill="#0c1d32" d="M 145.5,39.5 C 145.5,40.1667 145.833,40.5 146.5,40.5C 147.502,42.0109 148.169,43.6776 148.5,45.5C 147.167,45.5 145.833,45.5 144.5,45.5C 143.209,45.2627 142.209,45.596 141.5,46.5C 141.167,46.5 140.833,46.5 140.5,46.5C 139.508,46.3284 138.842,46.6618 138.5,47.5C 138.5,47.8333 138.5,48.1667 138.5,48.5C 137.833,48.1667 137.167,47.8333 136.5,47.5C 136.167,47.5 135.833,47.5 135.5,47.5C 134.662,47.8417 134.328,48.5084 134.5,49.5C 132.516,49.3832 130.85,50.0499 129.5,51.5C 128.482,50.8075 127.482,50.1408 126.5,49.5C 127.171,48.1529 127.171,46.9862 126.5,46C 128.301,45.6827 128.634,45.016 127.5,44C 129.608,43.6401 131.608,42.9734 133.5,42C 132.833,41.6667 132.167,41.3333 131.5,41C 136.037,40.5109 140.704,40.0109 145.5,39.5 Z"/></g>
<g><path style="opacity:0.004" fill="#fefffe" d="M 98.5,46.5 C 99.8333,47.1667 99.8333,47.1667 98.5,46.5 Z"/></g>
<g><path style="opacity:0.004" fill="#000000" d="M 162.5,48.5 C 163.833,49.1667 163.833,49.1667 162.5,48.5 Z"/></g>
<g><path style="opacity:0.031" fill="#00201f" d="M 126.5,49.5 C 125.833,50.1667 125.833,50.1667 126.5,49.5 Z"/></g>
<g><path style="opacity:0.031" fill="#00201f" d="M 124.5,51.5 C 125.833,52.1667 125.833,52.1667 124.5,51.5 Z"/></g>
<g><path style="opacity:0.996" fill="#0d1d2d" d="M 150.5,40.5 C 153.676,41.4212 156.676,42.9212 159.5,45C 161.229,46.7889 161.896,48.9556 161.5,51.5C 158.735,51.2024 156.235,50.2024 154,48.5C 153.626,49.4162 153.126,50.2496 152.5,51C 158.251,56.1523 157.251,57.9856 149.5,56.5C 149.33,57.8221 149.663,58.9887 150.5,60C 149.774,61.3974 148.607,62.2308 147,62.5C 144.942,63.2936 142.942,63.6269 141,63.5C 139.641,62.635 138.474,61.635 137.5,60.5C 137.5,60.1667 137.5,59.8333 137.5,59.5C 138.338,59.1583 138.672,58.4916 138.5,57.5C 135.925,58.2793 133.592,58.1127 131.5,57C 131.799,55.6796 131.966,54.1796 132,52.5C 132.333,53.1667 132.667,53.8333 133,54.5C 133.608,52.8455 134.108,51.1789 134.5,49.5C 135.338,49.1583 135.672,48.4916 135.5,47.5C 135.833,47.5 136.167,47.5 136.5,47.5C 136.843,49.2252 137.843,49.7252 139.5,49C 139.272,48.6012 138.938,48.4346 138.5,48.5C 138.5,48.1667 138.5,47.8333 138.5,47.5C 139.492,47.6716 140.158,47.3382 140.5,46.5C 140.833,46.5 141.167,46.5 141.5,46.5C 141.435,46.9382 141.601,47.2716 142,47.5C 142.995,46.9341 143.828,46.2674 144.5,45.5C 145.833,45.5 147.167,45.5 148.5,45.5C 148.169,43.6776 147.502,42.0109 146.5,40.5C 147.702,39.5946 149.036,39.5946 150.5,40.5 Z M 136.5,47.5 C 137.167,47.8333 137.833,48.1667 138.5,48.5C 138.938,48.4346 139.272,48.6012 139.5,49C 137.843,49.7252 136.843,49.2252 136.5,47.5 Z M 151.5,49.5 C 149.535,49.0517 149.202,48.0517 150.5,46.5C 150.517,47.3937 150.851,48.3937 151.5,49.5 Z M 149.5,56.5 C 148.292,57.2341 146.959,57.5674 145.5,57.5C 145.413,54.4017 145.913,54.0684 147,56.5C 147.705,54.0144 148.538,54.0144 149.5,56.5 Z M 140.5,56.5 C 139.833,56.8333 139.167,57.1667 138.5,57.5C 138.711,55.5759 139.377,55.2426 140.5,56.5 Z"/></g>
<g><path style="opacity:0.004" fill="#000000" d="M 156.5,51.5 C 157.833,52.1667 157.833,52.1667 156.5,51.5 Z"/></g>
<g><path style="opacity:0.004" fill="#fefffe" d="M 35.5,53.5 C 36.8333,54.1667 36.8333,54.1667 35.5,53.5 Z"/></g>
<g><path style="opacity:0.008" fill="#000000" d="M 162.5,54.5 C 161.833,53.1667 161.833,53.1667 162.5,54.5 Z"/></g>
<g><path style="opacity:0.004" fill="#000000" d="M 110.5,55.5 C 109.833,54.1667 109.833,54.1667 110.5,55.5 Z"/></g>
<g><path style="opacity:0.791" fill="#091624" d="M 124.5,52.5 C 124.824,53.8121 125.491,54.6454 126.5,55C 126.108,56.0105 125.441,56.5105 124.5,56.5C 125.981,57.944 125.648,58.6106 123.5,58.5C 123.167,57.1667 122.833,57.1667 122.5,58.5C 121.292,57.7659 119.959,57.4326 118.5,57.5C 118.5,57.1667 118.5,56.8333 118.5,56.5C 119.833,56.1667 119.833,55.8333 118.5,55.5C 118.662,53.1756 119.828,51.5089 122,50.5C 122.708,51.3805 123.542,52.0472 124.5,52.5 Z"/></g>
<g><path style="opacity:0.541" fill="#0b1721" d="M 118.5,55.5 C 118.5,55.8333 118.5,56.1667 118.5,56.5C 115.833,56.8333 115.833,57.1667 118.5,57.5C 118.672,58.4916 118.338,59.1583 117.5,59.5C 117.167,58.1667 116.833,58.1667 116.5,59.5C 115.833,59.5 115.5,59.8333 115.5,60.5C 114.508,60.3284 113.842,60.6618 113.5,61.5C 112.5,60.8333 111.5,60.1667 110.5,59.5C 110.5,58.1667 110.5,56.8333 110.5,55.5C 111.458,55.0472 112.292,54.3805 113,53.5C 114.601,53.8883 116.435,54.5549 118.5,55.5 Z"/></g>
<g><path style="opacity:0.675" fill="#0e1c27" d="M 170.5,56.5 C 169.132,57.3063 167.799,58.3063 166.5,59.5C 165.759,57.9229 164.426,56.2562 162.5,54.5C 163.978,50.7699 166.145,50.1033 169,52.5C 169.21,54.0581 169.71,55.3915 170.5,56.5 Z"/></g>
<g><path style="opacity:0.004" fill="#fefffe" d="M 248.5,56.5 C 249.833,57.1667 249.833,57.1667 248.5,56.5 Z"/></g>
<g><path style="opacity:0.004" fill="#fefffe" d="M 86.5,58.5 C 87.8333,59.1667 87.8333,59.1667 86.5,58.5 Z"/></g>
<g><path style="opacity:0.024" fill="#29002a" d="M 122.5,58.5 C 122.833,58.5 123.167,58.5 123.5,58.5C 123.315,59.1701 122.981,59.1701 122.5,58.5 Z"/></g>
<g><path style="opacity:0.004" fill="#fefffe" d="M 128.5,58.5 C 129.833,59.1667 129.833,59.1667 128.5,58.5 Z"/></g>
<g><path style="opacity:0.012" fill="#000000" d="M 137.5,59.5 C 136.833,58.1667 136.833,58.1667 137.5,59.5 Z"/></g>
<g><path style="opacity:0.012" fill="#000000" d="M 99.5,60.5 C 98.8333,59.1667 98.8333,59.1667 99.5,60.5 Z"/></g>
<g><path style="opacity:0.02" fill="#000033" d="M 110.5,59.5 C 109.833,60.1667 109.833,60.1667 110.5,59.5 Z"/></g>
<g><path style="opacity:0.012" fill="#000000" d="M 116.5,59.5 C 116.833,59.5 117.167,59.5 117.5,59.5C 117.315,60.1701 116.981,60.1701 116.5,59.5 Z"/></g>
<g><path style="opacity:0.008" fill="#000000" d="M 126.5,59.5 C 127.833,60.1667 127.833,60.1667 126.5,59.5 Z"/></g>
<g><path style="opacity:0.016" fill="#000000" d="M 137.5,60.5 C 136.833,61.1667 136.833,61.1667 137.5,60.5 Z"/></g>
<g><path style="opacity:0.945" fill="#0f1f27" d="M 168.5,64.5 C 165.69,67.4091 163.357,67.0757 161.5,63.5C 162.091,61.7338 162.924,60.0672 164,58.5C 164.71,59.9733 165.876,60.6399 167.5,60.5C 167.232,62.099 167.566,63.4324 168.5,64.5 Z"/></g>
<g><path style="opacity:0.004" fill="#000000" d="M 96.5,62.5 C 97.8333,63.1667 97.8333,63.1667 96.5,62.5 Z"/></g>
<g><path style="opacity:0.937" fill="#0d1924" d="M 99.5,60.5 C 103.5,59.8333 105.167,61.5 104.5,65.5C 101.284,66.1687 100.951,67.1687 103.5,68.5C 99.0641,67.4139 97.7308,64.7472 99.5,60.5 Z"/></g>
<g><path style="opacity:0.004" fill="#000000" d="M 169.5,64.5 C 168.833,63.1667 168.833,63.1667 169.5,64.5 Z"/></g>
<g><path style="opacity:0.027" fill="#000024" d="M 190.5,63.5 C 191.833,64.1667 191.833,64.1667 190.5,63.5 Z"/></g>
<g><path style="opacity:0.012" fill="#000000" d="M 110.5,64.5 C 111.833,65.1667 111.833,65.1667 110.5,64.5 Z"/></g>
<g><path style="opacity:0.471" fill="#0a1922" d="M 115.5,60.5 C 115.833,60.5 116.167,60.5 116.5,60.5C 116.786,62.2769 117.453,63.9436 118.5,65.5C 116.759,70.553 114.759,70.7197 112.5,66C 112.773,64.4672 113.106,62.9672 113.5,61.5C 114.492,61.6716 115.158,61.3382 115.5,60.5 Z"/></g>
<g><path style="opacity:0.925" fill="#0c1825" d="M 122.5,59.5 C 123.793,59.8746 125.126,60.2079 126.5,60.5C 127.62,62.9583 126.953,64.9583 124.5,66.5C 123.5,66.5 122.5,66.5 121.5,66.5C 121.249,64.8297 120.582,63.3297 119.5,62C 120.691,61.3021 121.691,60.4687 122.5,59.5 Z"/></g>
<g><path style="opacity:0.959" fill="#0d1923" d="M 189.5,66.5 C 187.5,66.5 185.5,66.5 183.5,66.5C 183.34,64.8008 183.506,63.1341 184,61.5C 185.676,60.9389 187.009,59.9389 188,58.5C 189.079,61.0627 189.579,63.7294 189.5,66.5 Z"/></g>
<g><path style="opacity:0.016" fill="#000000" d="M 104.5,65.5 C 105.833,66.1667 105.833,66.1667 104.5,65.5 Z"/></g>
<g><path style="opacity:1" fill="#0d1c29" d="M 169.5,64.5 C 172.485,61.9655 172.818,59.2988 170.5,56.5C 173.453,53.4948 175.786,53.8281 177.5,57.5C 177.392,58.4419 177.059,59.2753 176.5,60C 174.956,60.2896 173.623,60.9563 172.5,62C 176.597,63.3236 177.264,65.4903 174.5,68.5C 171.204,69.5582 169.537,68.2249 169.5,64.5 Z"/></g>
<g><path style="opacity:0.016" fill="#000000" d="M 110.5,66.5 C 111.833,67.1667 111.833,67.1667 110.5,66.5 Z"/></g>
<g><path style="opacity:0.004" fill="#000000" d="M 121.5,66.5 C 120.833,67.1667 120.833,67.1667 121.5,66.5 Z"/></g>
<g><path style="opacity:0.012" fill="#000000" d="M 124.5,66.5 C 125.833,67.1667 125.833,67.1667 124.5,66.5 Z"/></g>
<g><path style="opacity:0.004" fill="#000000" d="M 189.5,66.5 C 190.833,67.1667 190.833,67.1667 189.5,66.5 Z"/></g>
<g><path style="opacity:0.004" fill="#000000" d="M 192.5,67.5 C 193.833,68.1667 193.833,68.1667 192.5,67.5 Z"/></g>
<g><path style="opacity:0.004" fill="#fefffe" d="M 83.5,68.5 C 84.8333,69.1667 84.8333,69.1667 83.5,68.5 Z"/></g>
<g><path style="opacity:0.008" fill="#000000" d="M 161.5,69.5 C 162.833,70.1667 162.833,70.1667 161.5,69.5 Z"/></g>
<g><path style="opacity:0.004" fill="#fefffe" d="M 173.5,70.5 C 174.833,71.1667 174.833,71.1667 173.5,70.5 Z"/></g>
<g><path style="opacity:0.012" fill="#000000" d="M 186.5,70.5 C 187.833,71.1667 187.833,71.1667 186.5,70.5 Z"/></g>
<g><path style="opacity:0.98" fill="#111f2a" d="M 92.5,75.5 C 88.086,73.8447 87.4193,71.1781 90.5,67.5C 91.7164,68.0016 92.8831,68.3349 94,68.5C 94.8332,71.171 94.3332,73.5043 92.5,75.5 Z"/></g>
<g><path style="opacity:1" fill="#0e1d2c" d="M 103.5,68.5 C 104.496,68.5858 105.329,68.2524 106,67.5C 106.903,68.7014 108.069,69.5348 109.5,70C 108.871,74.1888 106.705,75.3555 103,73.5C 102.36,71.735 102.527,70.0683 103.5,68.5 Z"/></g>
<g><path style="opacity:0.004" fill="#000000" d="M 122.5,72.5 C 121.833,71.1667 121.833,71.1667 122.5,72.5 Z"/></g>
<g><path style="opacity:0.678" fill="#081a23" d="M 181.5,67.5 C 182.708,68.2341 184.041,68.5674 185.5,68.5C 187.478,73.2258 185.811,75.0591 180.5,74C 179.144,71.5859 179.478,69.4193 181.5,67.5 Z"/></g>
<g><path style="opacity:0.66" fill="#0c1b28" d="M 195.5,67.5 C 199.473,68.0755 200.473,70.2421 198.5,74C 194.93,75.1048 192.93,73.7714 192.5,70C 193.942,69.6232 194.942,68.7899 195.5,67.5 Z"/></g>
<g><path style="opacity:0.004" fill="#fefffe" d="M 203.5,71.5 C 204.833,72.1667 204.833,72.1667 203.5,71.5 Z"/></g>
<g><path style="opacity:0.004" fill="#fefffe" d="M 86.5,74.5 C 87.8333,75.1667 87.8333,75.1667 86.5,74.5 Z"/></g>
<g><path style="opacity:1" fill="#0b243c" d="M 158.5,80.5 C 157.11,81.8993 156.11,83.5659 155.5,85.5C 154.142,83.4821 152.475,81.6487 150.5,80C 151.5,79 152.5,78 153.5,77C 152.354,76.3551 151.354,75.5217 150.5,74.5C 147.273,74.6549 143.94,74.8216 140.5,75C 139.491,77.1718 137.824,78.3385 135.5,78.5C 134.428,82.5979 132.428,86.2645 129.5,89.5C 124.674,89.4277 120.007,89.761 115.5,90.5C 115.383,88.5165 116.05,86.8498 117.5,85.5C 118.251,86.376 118.751,87.376 119,88.5C 119.333,87.1667 119.667,85.8333 120,84.5C 122.449,84.9369 124.783,84.9369 127,84.5C 126.052,81.9818 125.219,79.3151 124.5,76.5C 128.376,76.2904 130.709,74.2904 131.5,70.5C 138.073,69.7352 144.74,69.7352 151.5,70.5C 151.615,75.6249 152.948,76.2916 155.5,72.5C 156.736,71.7542 158.07,71.4208 159.5,71.5C 159.36,73.1238 160.027,74.2904 161.5,75C 160.366,76.016 160.699,76.6827 162.5,77C 160.09,77.0572 158.756,78.2239 158.5,80.5 Z"/></g>
<g><path style="opacity:0.008" fill="#000000" d="M 92.5,75.5 C 93.1667,75.5 93.5,75.8333 93.5,76.5C 93.1667,76.1667 92.8333,75.8333 92.5,75.5 Z"/></g>
<g><path style="opacity:0.004" fill="#000000" d="M 206.5,75.5 C 207.833,76.1667 207.833,76.1667 206.5,75.5 Z"/></g>
<g><path style="opacity:1" fill="#1f2929" d="M 155.5,85.5 C 155.5,86.1667 155.5,86.8333 155.5,87.5C 154.5,86.8333 153.5,86.1667 152.5,85.5C 150.275,81.7653 147.442,78.432 144,75.5C 140.588,78.4067 137.754,81.7401 135.5,85.5C 131.936,89.0914 129.602,93.4248 128.5,98.5C 128.5,98.8333 128.5,99.1667 128.5,99.5C 127.566,100.568 127.232,101.901 127.5,103.5C 127.167,103.5 126.833,103.5 126.5,103.5C 126.042,98.4494 127.042,93.7827 129.5,89.5C 132.428,86.2645 134.428,82.5979 135.5,78.5C 137.824,78.3385 139.491,77.1718 140.5,75C 143.94,74.8216 147.273,74.6549 150.5,74.5C 151.354,75.5217 152.354,76.3551 153.5,77C 152.5,78 151.5,79 150.5,80C 152.475,81.6487 154.142,83.4821 155.5,85.5 Z"/></g>
<g><path style="opacity:0.978" fill="#0c1c25" d="M 188.5,74.5 C 190.167,74.5 191.833,74.5 193.5,74.5C 193.216,76.8771 193.216,79.0438 193.5,81C 188.612,81.2807 186.945,79.114 188.5,74.5 Z"/></g>
<g><path style="opacity:0.004" fill="#fefffe" d="M 53.5,77.5 C 54.8333,78.1667 54.8333,78.1667 53.5,77.5 Z"/></g>
<g><path style="opacity:1" fill="#0f2337" d="M 131.5,70.5 C 130.709,74.2904 128.376,76.2904 124.5,76.5C 125.219,79.3151 126.052,81.9818 127,84.5C 124.783,84.9369 122.449,84.9369 120,84.5C 119.667,85.8333 119.333,87.1667 119,88.5C 118.751,87.376 118.251,86.376 117.5,85.5C 116.05,86.8498 115.383,88.5165 115.5,90.5C 120.007,89.761 124.674,89.4277 129.5,89.5C 127.042,93.7827 126.042,98.4494 126.5,103.5C 126.413,108.537 126.746,113.537 127.5,118.5C 126.292,117.766 124.959,117.433 123.5,117.5C 123.5,116.167 123.5,114.833 123.5,113.5C 125.387,107.703 125.72,101.703 124.5,95.5C 123.808,98.1451 122.808,100.645 121.5,103C 119.288,103.789 117.288,103.622 115.5,102.5C 119.745,98.7377 119.079,96.571 113.5,96C 112.833,97 112.167,98 111.5,99C 112.737,99.2321 113.737,99.7321 114.5,100.5C 111.833,100.833 111.833,101.167 114.5,101.5C 114.5,101.833 114.5,102.167 114.5,102.5C 111.314,102.387 108.647,101.22 106.5,99C 106.645,98.228 106.978,97.5613 107.5,97C 108.833,96.6667 110.167,96.3333 111.5,96C 110.892,93.498 109.559,91.498 107.5,90C 108.337,85.8789 110.004,85.7122 112.5,89.5C 113.95,88.1502 114.617,86.4835 114.5,84.5C 113.127,84.6567 111.793,84.49 110.5,84C 111.696,83.3457 111.696,82.8457 110.5,82.5C 108.929,83.3094 107.262,83.6427 105.5,83.5C 110.38,78.6208 116.046,74.9542 122.5,72.5C 123.75,72.4226 124.583,71.756 125,70.5C 127.027,70.9863 129.193,70.9863 131.5,70.5 Z M 115.5,102.5 C 115.167,102.5 114.833,102.5 114.5,102.5C 114.5,102.167 114.5,101.833 114.5,101.5C 115.833,101.167 115.833,100.833 114.5,100.5C 113.737,99.7321 112.737,99.2321 111.5,99C 112.167,98 112.833,97 113.5,96C 119.079,96.571 119.745,98.7377 115.5,102.5 Z"/></g>
<g><path style="opacity:1" fill="#0f1d2c" d="M 206.5,76.5 C 206.833,77.8333 207.167,79.1667 207.5,80.5C 206.662,80.8417 206.328,81.5084 206.5,82.5C 199.929,82.0379 199.096,79.7046 204,75.5C 204.671,76.2524 205.504,76.5858 206.5,76.5 Z"/></g>
<g><path style="opacity:1" fill="#0c2335" d="M 185.5,84.5 C 187.885,86.8838 189.885,89.5505 191.5,92.5C 187.907,91.9912 185.574,89.9912 184.5,86.5C 181.898,84.8583 179.231,83.1916 176.5,81.5C 175.914,81.7093 175.414,82.0426 175,82.5C 173.98,81.1095 173.147,79.6095 172.5,78C 170.112,77.6966 167.945,76.8633 166,75.5C 163.904,76.7155 164.071,77.5488 166.5,78C 166.06,80.1623 165.727,82.329 165.5,84.5C 165.167,84.8333 164.833,85.1667 164.5,85.5C 163.476,84.1468 162.143,83.4802 160.5,83.5C 160.715,81.8212 160.048,80.8212 158.5,80.5C 158.756,78.2239 160.09,77.0572 162.5,77C 160.699,76.6827 160.366,76.016 161.5,75C 160.027,74.2904 159.36,73.1238 159.5,71.5C 158.07,71.4208 156.736,71.7542 155.5,72.5C 152.948,76.2916 151.615,75.6249 151.5,70.5C 144.74,69.7352 138.073,69.7352 131.5,70.5C 142.426,67.6261 153.259,68.2927 164,72.5C 164.333,72.1667 164.667,71.8333 165,71.5C 171.919,75.0797 178.752,79.4131 185.5,84.5 Z"/></g>
<g><path style="opacity:0.012" fill="#000000" d="M 90.5,79.5 C 91.8333,80.1667 91.8333,80.1667 90.5,79.5 Z"/></g>
<g><path style="opacity:0.416" fill="#0f1e2b" d="M 94.5,80.5 C 94.1667,79.1667 93.8333,77.8333 93.5,76.5C 95.9627,74.0593 98.6293,73.8926 101.5,76C 100.816,79.9222 98.4825,81.4222 94.5,80.5 Z"/></g>
<g><path style="opacity:1" fill="#efeaa2" d="M 152.5,85.5 C 149.882,84.0279 147.049,83.0279 144,82.5C 142.542,83.7468 141.042,83.7468 139.5,82.5C 138.148,83.5244 136.815,84.5244 135.5,85.5C 137.754,81.7401 140.588,78.4067 144,75.5C 147.442,78.432 150.275,81.7653 152.5,85.5 Z"/></g>
<g><path style="opacity:0.008" fill="#000000" d="M 195.5,79.5 C 196.833,80.1667 196.833,80.1667 195.5,79.5 Z"/></g>
<g><path style="opacity:0.024" fill="#002a29" d="M 79.5,80.5 C 80.8333,81.1667 80.8333,81.1667 79.5,80.5 Z"/></g>
<g><path style="opacity:0.588" fill="#11202c" d="M 83.5,75.5 C 86.9549,76.1284 88.1215,78.1284 87,81.5C 85.3005,82.4061 83.4672,82.7394 81.5,82.5C 81.1849,79.7892 81.8516,77.4559 83.5,75.5 Z"/></g>
<g><path style="opacity:0.004" fill="#000000" d="M 94.5,80.5 C 93.8333,81.1667 93.8333,81.1667 94.5,80.5 Z"/></g>
<g><path style="opacity:0.004" fill="#000000" d="M 104.5,80.5 C 105.833,81.1667 105.833,81.1667 104.5,80.5 Z"/></g>
<g><path style="opacity:1" fill="#0d243b" d="M 184.5,86.5 C 184.785,88.288 184.452,89.9547 183.5,91.5C 182.575,92.6405 181.741,92.6405 181,91.5C 180.5,92.6667 179.667,93.5 178.5,94C 179.537,95.8508 178.87,97.0175 176.5,97.5C 173.754,94.6334 171.42,94.9667 169.5,98.5C 170.612,99.2652 171.279,100.265 171.5,101.5C 171.833,103.5 172.167,105.5 172.5,107.5C 169.612,106.99 167.279,107.656 165.5,109.5C 165.833,110.833 166.167,112.167 166.5,113.5C 165.167,113.5 163.833,113.5 162.5,113.5C 162.666,109.154 162.499,104.821 162,100.5C 161.626,98.5087 160.793,96.842 159.5,95.5C 158.833,94.8333 158.167,94.1667 157.5,93.5C 156.833,91.5 156.167,89.5 155.5,87.5C 155.5,86.8333 155.5,86.1667 155.5,85.5C 156.11,83.5659 157.11,81.8993 158.5,80.5C 160.048,80.8212 160.715,81.8212 160.5,83.5C 162.143,83.4802 163.476,84.1468 164.5,85.5C 164.833,85.1667 165.167,84.8333 165.5,84.5C 165.727,82.329 166.06,80.1623 166.5,78C 164.071,77.5488 163.904,76.7155 166,75.5C 167.945,76.8633 170.112,77.6966 172.5,78C 173.147,79.6095 173.98,81.1095 175,82.5C 175.414,82.0426 175.914,81.7093 176.5,81.5C 179.231,83.1916 181.898,84.8583 184.5,86.5 Z"/></g>
<g><path style="opacity:0.004" fill="#000000" d="M 207.5,80.5 C 208.833,81.1667 208.833,81.1667 207.5,80.5 Z"/></g>
<g><path style="opacity:0.008" fill="#000000" d="M 75.5,83.5 C 75.8966,82.475 76.5632,82.3083 77.5,83C 76.9056,83.4643 76.2389,83.631 75.5,83.5 Z"/></g>
<g><path style="opacity:0.008" fill="#000000" d="M 80.5,83.5 C 79.8333,82.1667 79.8333,82.1667 80.5,83.5 Z"/></g>
<g><path style="opacity:1" fill="#0f1d2b" d="M 194.5,81.5 C 199.376,80.4044 201.043,82.0711 199.5,86.5C 195.072,88.0522 193.405,86.3855 194.5,81.5 Z"/></g>
<g><path style="opacity:0.004" fill="#000000" d="M 206.5,82.5 C 207.833,83.1667 207.833,83.1667 206.5,82.5 Z"/></g>
<g><path style="opacity:0.839" fill="#0f1b2d" d="M 93.5,81.5 C 94.8854,84.3511 94.2187,86.6844 91.5,88.5C 88.9066,86.9292 87.9066,84.5959 88.5,81.5C 90.1667,81.5 91.8333,81.5 93.5,81.5 Z"/></g>
<g><path style="opacity:0.016" fill="#000000" d="M 185.5,83.5 C 186.833,84.1667 186.833,84.1667 185.5,83.5 Z"/></g>
<g><path style="opacity:0.004" fill="#000000" d="M 73.5,84.5 C 74.8333,85.1667 74.8333,85.1667 73.5,84.5 Z"/></g>
<g><path style="opacity:1" fill="#0c233d" d="M 114.5,102.5 C 114.833,102.5 115.167,102.5 115.5,102.5C 117.288,103.622 119.288,103.789 121.5,103C 122.808,100.645 123.808,98.1451 124.5,95.5C 125.72,101.703 125.387,107.703 123.5,113.5C 122.833,113.5 122.167,113.5 121.5,113.5C 121.586,112.504 121.252,111.671 120.5,111C 117.124,111.184 114.457,110.017 112.5,107.5C 111.583,108.127 110.583,108.461 109.5,108.5C 108.144,106.73 106.311,105.397 104,104.5C 103.586,104.957 103.086,105.291 102.5,105.5C 100.333,104.208 98.0001,103.375 95.5,103C 98.984,102.083 102.317,100.75 105.5,99C 104.747,97.513 103.914,97.3463 103,98.5C 102.667,97.8333 102.333,97.1667 102,96.5C 100.989,97.3366 99.8221,97.67 98.5,97.5C 98.7878,94.0611 99.4544,90.7278 100.5,87.5C 100.5,87.1667 100.5,86.8333 100.5,86.5C 102.001,85.2485 103.668,84.2485 105.5,83.5C 107.262,83.6427 108.929,83.3094 110.5,82.5C 111.696,82.8457 111.696,83.3457 110.5,84C 111.793,84.49 113.127,84.6567 114.5,84.5C 114.617,86.4835 113.95,88.1502 112.5,89.5C 110.004,85.7122 108.337,85.8789 107.5,90C 109.559,91.498 110.892,93.498 111.5,96C 110.167,96.3333 108.833,96.6667 107.5,97C 106.978,97.5613 106.645,98.228 106.5,99C 108.647,101.22 111.314,102.387 114.5,102.5 Z M 115.5,102.5 C 115.167,102.5 114.833,102.5 114.5,102.5C 114.5,102.167 114.5,101.833 114.5,101.5C 115.833,101.167 115.833,100.833 114.5,100.5C 113.737,99.7321 112.737,99.2321 111.5,99C 112.167,98 112.833,97 113.5,96C 119.079,96.571 119.745,98.7377 115.5,102.5 Z"/></g>
<g><path style="opacity:0.004" fill="#000000" d="M 100.5,86.5 C 99.8333,85.1667 99.8333,85.1667 100.5,86.5 Z"/></g>
<g><path style="opacity:1" fill="#f8df7d" d="M 152.5,85.5 C 153.5,86.1667 154.5,86.8333 155.5,87.5C 156.167,89.5 156.833,91.5 157.5,93.5C 157.158,94.3382 156.492,94.6716 155.5,94.5C 154.45,85.9929 151.617,85.3262 147,92.5C 144.595,91.7256 142.095,91.2256 139.5,91C 138.897,88.9286 137.564,87.7619 135.5,87.5C 135.5,86.8333 135.5,86.1667 135.5,85.5C 136.815,84.5244 138.148,83.5244 139.5,82.5C 141.042,83.7468 142.542,83.7468 144,82.5C 147.049,83.0279 149.882,84.0279 152.5,85.5 Z"/></g>
<g><path style="opacity:0.948" fill="#111d26" d="M 80.5,83.5 C 81.2389,83.369 81.9056,83.5357 82.5,84C 81.6453,86.4356 80.9787,88.9356 80.5,91.5C 75.3176,91.214 73.9843,89.0473 76.5,85C 78.0581,84.79 79.3915,84.29 80.5,83.5 Z"/></g>
<g><path style="opacity:0.986" fill="#111f2a" d="M 207.5,84.5 C 209.167,84.5 210.833,84.5 212.5,84.5C 214.041,87.6974 213.041,90.0307 209.5,91.5C 205.88,89.6779 205.213,87.3446 207.5,84.5 Z"/></g>
<g><path style="opacity:0.004" fill="#fefffe" d="M 242.5,89.5 C 243.833,90.1667 243.833,90.1667 242.5,89.5 Z"/></g>
<g><path style="opacity:0.004" fill="#000000" d="M 96.5,91.5 C 95.8333,90.1667 95.8333,90.1667 96.5,91.5 Z"/></g>
<g><path style="opacity:1" fill="#101f2c" d="M 206.5,93.5 C 205.833,94.1667 205.167,94.8333 204.5,95.5C 203.153,94.8288 201.986,94.8288 201,95.5C 200.682,93.9391 199.849,92.7724 198.5,92C 202.389,87.0264 205.055,87.5264 206.5,93.5 Z"/></g>
<g><path style="opacity:1" fill="#111f2a" d="M 87.5,94.5 C 86.0695,94.4208 84.7362,94.7542 83.5,95.5C 82.6018,94.0783 81.6018,92.7449 80.5,91.5C 82.2099,89.8004 84.2099,88.4671 86.5,87.5C 87.4063,89.3864 88.4063,91.2197 89.5,93C 88.5842,93.2784 87.9175,93.7784 87.5,94.5 Z"/></g>
<g><path style="opacity:1" fill="#0b253c" d="M 184.5,86.5 C 185.574,89.9912 187.907,91.9912 191.5,92.5C 192.167,92.5 192.5,92.8333 192.5,93.5C 191.962,95.1172 191.629,96.7839 191.5,98.5C 189.076,98.6351 187.076,98.9684 185.5,99.5C 187.868,102.014 190.201,102.014 192.5,99.5C 193.23,100.934 194.23,102.1 195.5,103C 193.699,103.317 193.366,103.984 194.5,105C 190.806,104.496 187.14,104.663 183.5,105.5C 181.271,104.423 178.937,103.756 176.5,103.5C 176.5,102.167 176.5,100.833 176.5,99.5C 176.5,98.8333 176.5,98.1667 176.5,97.5C 178.87,97.0175 179.537,95.8508 178.5,94C 179.667,93.5 180.5,92.6667 181,91.5C 181.741,92.6405 182.575,92.6405 183.5,91.5C 184.452,89.9547 184.785,88.288 184.5,86.5 Z"/></g>
<g><path style="opacity:0.016" fill="#000000" d="M 193.5,92.5 C 194.833,93.1667 194.833,93.1667 193.5,92.5 Z"/></g>
<g><path style="opacity:0.008" fill="#040016" d="M 206.5,93.5 C 206.369,92.7611 206.536,92.0944 207,91.5C 207.692,92.4368 207.525,93.1034 206.5,93.5 Z"/></g>
<g><path style="opacity:0.012" fill="#000000" d="M 75.5,94.5 C 76.8333,95.1667 76.8333,95.1667 75.5,94.5 Z"/></g>
<g><path style="opacity:0.008" fill="#000000" d="M 87.5,94.5 C 88.8333,95.1667 88.8333,95.1667 87.5,94.5 Z"/></g>
<g><path style="opacity:1" fill="#d5b174" d="M 135.5,85.5 C 135.5,86.1667 135.5,86.8333 135.5,87.5C 133.935,89.5093 132.935,91.8427 132.5,94.5C 131.167,95.8333 129.833,97.1667 128.5,98.5C 129.602,93.4248 131.936,89.0914 135.5,85.5 Z"/></g>
<g><path style="opacity:0.012" fill="#000000" d="M 217.5,94.5 C 218.833,95.1667 218.833,95.1667 217.5,94.5 Z"/></g>
<g><path style="opacity:0.012" fill="#000000" d="M 68.5,95.5 C 69.8333,96.1667 69.8333,96.1667 68.5,95.5 Z"/></g>
<g><path style="opacity:1" fill="#fbc95c" d="M 135.5,87.5 C 137.564,87.7619 138.897,88.9286 139.5,91C 142.095,91.2256 144.595,91.7256 147,92.5C 151.617,85.3262 154.45,85.9929 155.5,94.5C 154.77,95.7124 153.77,96.7124 152.5,97.5C 149.631,98.0781 146.965,99.0781 144.5,100.5C 141.702,99.0468 138.702,98.0468 135.5,97.5C 135.121,95.7869 134.121,94.7869 132.5,94.5C 132.935,91.8427 133.935,89.5093 135.5,87.5 Z"/></g>
<g><path style="opacity:0.004" fill="#000000" d="M 204.5,95.5 C 205.833,96.1667 205.833,96.1667 204.5,95.5 Z"/></g>
<g><path style="opacity:0.004" fill="#fefffe" d="M 5.5,96.5 C 6.83333,97.1667 6.83333,97.1667 5.5,96.5 Z"/></g>
<g><path style="opacity:0.631" fill="#131e2c" d="M 75.5,95.5 C 76.4032,98.9251 77.9032,99.2584 80,96.5C 81.4194,97.4601 82.9194,98.2935 84.5,99C 83.8385,101.672 82.1719,103.172 79.5,103.5C 79.1667,102.167 78.8333,102.167 78.5,103.5C 76.9731,103.573 75.9731,102.906 75.5,101.5C 70.2635,101.01 69.0968,98.3431 72,93.5C 73.5961,92.9515 74.7627,93.6182 75.5,95.5 Z M 75.5,101.5 C 75.7828,100.711 76.2828,100.044 77,99.5C 77.5281,100.816 77.0281,101.483 75.5,101.5 Z"/></g>
<g><path style="opacity:0.004" fill="#000000" d="M 218.5,97.5 C 219.833,98.1667 219.833,98.1667 218.5,97.5 Z"/></g>
<g><path style="opacity:0.004" fill="#000000" d="M 68.5,99.5 C 69.8333,100.167 69.8333,100.167 68.5,99.5 Z"/></g>
<g><path style="opacity:1" fill="#11202c" d="M 210.5,102.5 C 207.247,104.27 204.914,103.436 203.5,100C 204.943,98.9328 206.276,97.7662 207.5,96.5C 209.134,96.968 210.3,97.968 211,99.5C 211.31,95.2748 213.143,94.1082 216.5,96C 218.013,100.466 216.513,101.966 212,100.5C 210.97,100.836 210.47,101.503 210.5,102.5 Z"/></g>
<g><path style="opacity:0.004" fill="#fefffe" d="M 17.5,101.5 C 18.8333,102.167 18.8333,102.167 17.5,101.5 Z"/></g>
<g><path style="opacity:0.004" fill="#fefffe" d="M 86.5,101.5 C 87.8333,102.167 87.8333,102.167 86.5,101.5 Z"/></g>
<g><path style="opacity:0.016" fill="#00403f" d="M 211.5,101.5 C 212.833,102.167 212.833,102.167 211.5,101.5 Z"/></g>
<g><path style="opacity:0.004" fill="#fefffe" d="M 236.5,101.5 C 237.833,102.167 237.833,102.167 236.5,101.5 Z"/></g>
<g><path style="opacity:1" fill="#0b2537" d="M 100.5,87.5 C 99.4544,90.7278 98.7878,94.0611 98.5,97.5C 99.8221,97.67 100.989,97.3366 102,96.5C 102.333,97.1667 102.667,97.8333 103,98.5C 103.914,97.3463 104.747,97.513 105.5,99C 102.317,100.75 98.984,102.083 95.5,103C 98.0001,103.375 100.333,104.208 102.5,105.5C 103.086,105.291 103.586,104.957 104,104.5C 106.311,105.397 108.144,106.73 109.5,108.5C 104.195,107.558 98.8613,107.391 93.5,108C 92.6433,108.689 91.9767,109.522 91.5,110.5C 92.3041,118.785 92.8041,127.118 93,135.5C 93.66,137.324 94.8267,138.657 96.5,139.5C 96.8333,139.5 97.1667,139.5 97.5,139.5C 98.4424,144.052 100.442,148.052 103.5,151.5C 103.5,151.833 103.5,152.167 103.5,152.5C 101.236,151.419 99.0693,150.085 97,148.5C 96.2177,145.69 95.3844,143.023 94.5,140.5C 93.828,139.733 92.9947,139.066 92,138.5C 91.7508,139.624 91.2508,140.624 90.5,141.5C 89.8967,139.548 90.23,137.548 91.5,135.5C 90.6072,132.916 90.2739,130.249 90.5,127.5C 89.5,127.5 88.5,127.5 87.5,127.5C 87.5,125.833 87.5,124.167 87.5,122.5C 86.209,122.263 85.209,122.596 84.5,123.5C 83.9569,123.44 83.6236,123.107 83.5,122.5C 84.7044,120.097 85.0378,117.764 84.5,115.5C 86.1812,113.008 86.8479,110.508 86.5,108C 89.1305,102.568 92.4638,97.0677 96.5,91.5C 97.6668,89.9586 99.0001,88.6252 100.5,87.5 Z"/></g>
<g><path style="opacity:1" fill="#f9aa50" d="M 157.5,93.5 C 158.167,94.1667 158.833,94.8333 159.5,95.5C 159.993,97.8056 160.326,100.139 160.5,102.5C 158.806,100.562 156.806,100.229 154.5,101.5C 153.754,102.736 153.421,104.07 153.5,105.5C 147.38,105.974 141.547,104.974 136,102.5C 135.29,103.973 134.124,104.64 132.5,104.5C 133.187,99.0675 132.021,98.4008 129,102.5C 128.517,101.552 128.351,100.552 128.5,99.5C 128.5,99.1667 128.5,98.8333 128.5,98.5C 129.833,97.1667 131.167,95.8333 132.5,94.5C 134.121,94.7869 135.121,95.7869 135.5,97.5C 138.702,98.0468 141.702,99.0468 144.5,100.5C 146.965,99.0781 149.631,98.0781 152.5,97.5C 153.77,96.7124 154.77,95.7124 155.5,94.5C 156.492,94.6716 157.158,94.3382 157.5,93.5 Z"/></g>
<g><path style="opacity:0.004" fill="#000000" d="M 210.5,102.5 C 210.833,102.5 211.167,102.5 211.5,102.5C 211.315,103.17 210.981,103.17 210.5,102.5 Z"/></g>
<g><path style="opacity:0.012" fill="#000055" d="M 78.5,103.5 C 78.8333,103.5 79.1667,103.5 79.5,103.5C 79.3147,104.17 78.9813,104.17 78.5,103.5 Z"/></g>
<g><path style="opacity:1" fill="#0b2537" d="M 192.5,93.5 C 192.833,93.5 193.167,93.5 193.5,93.5C 196.894,99.3804 199.894,105.38 202.5,111.5C 202.963,114.482 203.296,117.482 203.5,120.5C 202.167,117.13 200,116.797 197,119.5C 198.509,121.731 199.343,124.397 199.5,127.5C 198.167,127.5 196.833,127.5 195.5,127.5C 196.15,135.713 195.316,143.713 193,151.5C 192.184,150.177 191.017,149.511 189.5,149.5C 191.556,145.762 193.056,141.762 194,137.5C 194.704,128.162 195.038,118.828 195,109.5C 192.891,107.381 190.225,106.381 187,106.5C 179.78,108.047 172.613,109.047 165.5,109.5C 167.279,107.656 169.612,106.99 172.5,107.5C 172.167,105.5 171.833,103.5 171.5,101.5C 173.05,100.559 174.716,99.8925 176.5,99.5C 176.5,100.833 176.5,102.167 176.5,103.5C 178.937,103.756 181.271,104.423 183.5,105.5C 187.14,104.663 190.806,104.496 194.5,105C 193.366,103.984 193.699,103.317 195.5,103C 194.23,102.1 193.23,100.934 192.5,99.5C 190.201,102.014 187.868,102.014 185.5,99.5C 187.076,98.9684 189.076,98.6351 191.5,98.5C 191.629,96.7839 191.962,95.1172 192.5,93.5 Z"/></g>
<g><path style="opacity:0.004" fill="#000000" d="M 207.5,104.5 C 208.833,105.167 208.833,105.167 207.5,104.5 Z"/></g>
<g><path style="opacity:0.004" fill="#fefffe" d="M 68.5,105.5 C 69.8333,106.167 69.8333,106.167 68.5,105.5 Z"/></g>
<g><path style="opacity:0.786" fill="#132631" d="M 210.5,111.5 C 210.167,110.167 209.833,110.167 209.5,111.5C 207.992,108.878 208.492,106.545 211,104.5C 215.797,107.308 215.631,109.642 210.5,111.5 Z"/></g>
<g><path style="opacity:0.004" fill="#fefffe" d="M 14.5,106.5 C 15.8333,107.167 15.8333,107.167 14.5,106.5 Z"/></g>
<g><path style="opacity:0.004" fill="#fefffe" d="M 50.5,106.5 C 51.8333,107.167 51.8333,107.167 50.5,106.5 Z"/></g>
<g><path style="opacity:0.008" fill="#000000" d="M 73.5,107.5 C 72.8333,106.167 72.8333,106.167 73.5,107.5 Z"/></g>
<g><path style="opacity:1" fill="#fa8d49" d="M 128.5,99.5 C 128.351,100.552 128.517,101.552 129,102.5C 132.021,98.4008 133.187,99.0675 132.5,104.5C 134.124,104.64 135.29,103.973 136,102.5C 141.547,104.974 147.38,105.974 153.5,105.5C 153.421,104.07 153.754,102.736 154.5,101.5C 156.806,100.229 158.806,100.562 160.5,102.5C 160.657,103.873 160.49,105.207 160,106.5C 159.667,106.167 159.333,105.833 159,105.5C 157.888,108.278 156.055,110.445 153.5,112C 146.508,112.5 139.508,112.666 132.5,112.5C 132.502,110.169 131.669,108.169 130,106.5C 129.56,108.866 129.06,111.199 128.5,113.5C 127.521,110.375 127.187,107.042 127.5,103.5C 127.232,101.901 127.566,100.568 128.5,99.5 Z"/></g>
<g><path style="opacity:0.678" fill="#142231" d="M 78.5,104.5 C 78.9175,105.222 79.5842,105.722 80.5,106C 79.3595,106.741 79.3595,107.575 80.5,108.5C 79.6249,110.773 77.9582,111.773 75.5,111.5C 75.1667,110.167 74.8333,110.167 74.5,111.5C 72.8906,110.335 72.5573,109.001 73.5,107.5C 74.2679,106.737 74.7679,105.737 75,104.5C 75.9862,105.171 77.1529,105.171 78.5,104.5 Z"/></g>
<g><path style="opacity:0.008" fill="#000000" d="M 202.5,110.5 C 203.833,111.167 203.833,111.167 202.5,110.5 Z"/></g>
<g><path style="opacity:0.004" fill="#fefffe" d="M 17.5,111.5 C 18.8333,112.167 18.8333,112.167 17.5,111.5 Z"/></g>
<g><path style="opacity:0.043" fill="#172e2d" d="M 74.5,111.5 C 74.8333,111.5 75.1667,111.5 75.5,111.5C 75.3147,112.17 74.9813,112.17 74.5,111.5 Z"/></g>
<g><path style="opacity:0.012" fill="#000055" d="M 209.5,111.5 C 209.833,111.5 210.167,111.5 210.5,111.5C 210.315,112.17 209.981,112.17 209.5,111.5 Z"/></g>
<g><path style="opacity:0.039" fill="#1a1a33" d="M 213.5,111.5 C 214.833,112.167 214.833,112.167 213.5,111.5 Z"/></g>
<g><path style="opacity:0.027" fill="#232423" d="M 71.5,113.5 C 70.8333,112.167 70.8333,112.167 71.5,113.5 Z"/></g>
<g><path style="opacity:0.008" fill="#000000" d="M 76.5,112.5 C 77.8333,113.167 77.8333,113.167 76.5,112.5 Z"/></g>
<g><path style="opacity:0.004" fill="#000000" d="M 203.5,113.5 C 204.833,114.167 204.833,114.167 203.5,113.5 Z"/></g>
<g><path style="opacity:1" fill="#d1ed5b" d="M 192.5,119.5 C 189.365,119.452 187.698,117.785 187.5,114.5C 185.284,115.966 183.284,117.633 181.5,119.5C 177.802,115.178 175.469,115.845 174.5,121.5C 169.882,120.309 167.382,121.975 167,126.5C 165.989,127.337 164.822,127.67 163.5,127.5C 162.662,127.158 162.328,126.492 162.5,125.5C 164.409,121.685 165.742,117.685 166.5,113.5C 169.5,112.833 172.5,112.167 175.5,111.5C 181.161,111.093 186.828,110.76 192.5,110.5C 192.5,113.5 192.5,116.5 192.5,119.5 Z"/></g>
<g><path style="opacity:1" fill="#102b25" d="M 189.5,149.5 C 187.445,151.555 185.779,153.888 184.5,156.5C 183.5,157.167 182.5,157.833 181.5,158.5C 178.476,159.877 175.476,161.21 172.5,162.5C 173.167,161.833 173.833,161.167 174.5,160.5C 175.167,160.5 175.5,160.167 175.5,159.5C 185.64,153.352 191.307,144.352 192.5,132.5C 193.466,124.92 193.799,117.253 193.5,109.5C 188.821,109.334 184.155,109.501 179.5,110C 177.942,110.21 176.609,110.71 175.5,111.5C 172.5,112.167 169.5,112.833 166.5,113.5C 166.167,112.167 165.833,110.833 165.5,109.5C 172.613,109.047 179.78,108.047 187,106.5C 190.225,106.381 192.891,107.381 195,109.5C 195.038,118.828 194.704,128.162 194,137.5C 193.056,141.762 191.556,145.762 189.5,149.5 Z"/></g>
<g><path style="opacity:1" fill="#17331e" d="M 162.5,113.5 C 163.833,113.5 165.167,113.5 166.5,113.5C 165.742,117.685 164.409,121.685 162.5,125.5C 161.833,126.167 161.167,126.833 160.5,127.5C 160.887,123.945 161.887,120.612 163.5,117.5C 163.154,116.151 162.821,114.817 162.5,113.5 Z"/></g>
<g><path style="opacity:1" fill="#f86951" d="M 160.5,102.5 C 161.833,106.833 161.833,111.167 160.5,115.5C 159.599,116.29 158.932,117.29 158.5,118.5C 149.083,120.123 139.749,119.79 130.5,117.5C 130.006,115.974 129.339,114.641 128.5,113.5C 129.06,111.199 129.56,108.866 130,106.5C 131.669,108.169 132.502,110.169 132.5,112.5C 139.508,112.666 146.508,112.5 153.5,112C 156.055,110.445 157.888,108.278 159,105.5C 159.333,105.833 159.667,106.167 160,106.5C 160.49,105.207 160.657,103.873 160.5,102.5 Z"/></g>
<g><path style="opacity:0.004" fill="#fefffe" d="M 206.5,116.5 C 207.833,117.167 207.833,117.167 206.5,116.5 Z"/></g>
<g><path style="opacity:1" fill="#d4ed56" d="M 107.5,110.5 C 111.774,111.829 116.107,113.329 120.5,115C 121.444,117.719 121.777,120.552 121.5,123.5C 119.18,121.774 116.513,121.107 113.5,121.5C 113.026,115.731 110.859,115.065 107,119.5C 105.286,118.924 104.119,117.757 103.5,116C 102.207,115.51 100.873,115.343 99.5,115.5C 99.5,116.833 99.5,118.167 99.5,119.5C 98.5,119.5 97.5,119.5 96.5,119.5C 95.2243,116.97 95.2243,114.303 96.5,111.5C 100.107,110.511 103.774,110.177 107.5,110.5 Z"/></g>
<g><path style="opacity:0.808" fill="#142636" d="M 71.5,113.5 C 73.1667,113.5 74.8333,113.5 76.5,113.5C 78.0134,116.716 77.3467,119.382 74.5,121.5C 69.0144,119.852 68.0144,117.185 71.5,113.5 Z"/></g>
<g><path style="opacity:1" fill="#96c344" d="M 192.5,119.5 C 192.577,123.215 192.244,126.881 191.5,130.5C 189.273,131.401 188.273,133.067 188.5,135.5C 186.139,135.326 183.806,134.993 181.5,134.5C 181.5,135.833 181.5,137.167 181.5,138.5C 176.945,139.129 175.278,137.462 176.5,133.5C 177.5,133.5 178.5,133.5 179.5,133.5C 179.822,131.278 179.155,129.444 177.5,128C 174.151,127.612 170.817,127.779 167.5,128.5C 167.5,129.5 167.5,130.5 167.5,131.5C 165.473,131.662 163.473,131.495 161.5,131C 162.823,130.184 163.489,129.017 163.5,127.5C 164.822,127.67 165.989,127.337 167,126.5C 167.382,121.975 169.882,120.309 174.5,121.5C 175.469,115.845 177.802,115.178 181.5,119.5C 183.284,117.633 185.284,115.966 187.5,114.5C 187.698,117.785 189.365,119.452 192.5,119.5 Z"/></g>
<g><path style="opacity:0.622" fill="#101f2b" d="M 213.5,121.5 C 211.621,121.607 211.288,121.107 212.5,120C 211.743,118.488 210.743,117.154 209.5,116C 210.849,115.228 211.682,114.061 212,112.5C 213.399,113.227 214.899,113.727 216.5,114C 217.167,115.333 218.167,116.333 219.5,117C 217.368,117.918 216.701,119.251 217.5,121C 215.981,120.669 214.648,120.836 213.5,121.5 Z"/></g>
<g><path style="opacity:1" fill="#99c643" d="M 121.5,123.5 C 121.5,124.833 121.5,126.167 121.5,127.5C 122.833,127.5 124.167,127.5 125.5,127.5C 125.5,128.833 125.5,130.167 125.5,131.5C 123.784,131.371 122.117,131.038 120.5,130.5C 120.579,129.07 120.246,127.736 119.5,126.5C 116.914,125.52 114.247,125.187 111.5,125.5C 111.762,124.022 111.429,122.689 110.5,121.5C 109.673,125.459 109.173,129.459 109,133.5C 105.518,132.085 102.018,130.585 98.5,129C 97.8767,126.393 97.21,123.893 96.5,121.5C 96.5,120.833 96.5,120.167 96.5,119.5C 97.5,119.5 98.5,119.5 99.5,119.5C 99.5,118.167 99.5,116.833 99.5,115.5C 100.873,115.343 102.207,115.51 103.5,116C 104.119,117.757 105.286,118.924 107,119.5C 110.859,115.065 113.026,115.731 113.5,121.5C 116.513,121.107 119.18,121.774 121.5,123.5 Z"/></g>
<g><path style="opacity:0.012" fill="#000055" d="M 213.5,121.5 C 214.833,122.167 214.833,122.167 213.5,121.5 Z"/></g>
<g><path style="opacity:0.004" fill="#fefffe" d="M 11.5,122.5 C 12.8333,123.167 12.8333,123.167 11.5,122.5 Z"/></g>
<g><path style="opacity:0.031" fill="#00201f" d="M 216.5,122.5 C 217.833,123.167 217.833,123.167 216.5,122.5 Z"/></g>
<g><path style="opacity:1" fill="#112532" d="M 74.5,121.5 C 78.2554,124.613 78.2554,127.613 74.5,130.5C 68.793,128.257 68.293,125.59 73,122.5C 74.1068,123.712 74.6068,123.379 74.5,121.5 Z"/></g>
<g><path style="opacity:1" fill="#c9e475" d="M 107.5,110.5 C 112.309,110.869 116.976,111.869 121.5,113.5C 122.575,118.057 124.241,122.391 126.5,126.5C 126.5,127.167 126.167,127.5 125.5,127.5C 124.167,127.5 122.833,127.5 121.5,127.5C 121.5,126.167 121.5,124.833 121.5,123.5C 121.777,120.552 121.444,117.719 120.5,115C 116.107,113.329 111.774,111.829 107.5,110.5 Z"/></g>
<g><path style="opacity:1" fill="#df4b52" d="M 128.5,113.5 C 129.339,114.641 130.006,115.974 130.5,117.5C 139.749,119.79 149.083,120.123 158.5,118.5C 156.247,122.59 153.08,125.923 149,128.5C 147.013,127.846 145.68,126.513 145,124.5C 142.754,125.553 140.754,126.886 139,128.5C 137.632,127.297 136.132,126.297 134.5,125.5C 133.56,122.61 131.893,120.277 129.5,118.5C 128.691,116.929 128.357,115.262 128.5,113.5 Z"/></g>
<g><path style="opacity:1" fill="#bb5a67" d="M 126.5,103.5 C 126.833,103.5 127.167,103.5 127.5,103.5C 127.187,107.042 127.521,110.375 128.5,113.5C 128.357,115.262 128.691,116.929 129.5,118.5C 131.893,120.277 133.56,122.61 134.5,125.5C 136.132,126.297 137.632,127.297 139,128.5C 140.754,126.886 142.754,125.553 145,124.5C 145.68,126.513 147.013,127.846 149,128.5C 153.08,125.923 156.247,122.59 158.5,118.5C 158.932,117.29 159.599,116.29 160.5,115.5C 159.307,124.718 154.307,129.051 145.5,128.5C 144.5,125.833 143.5,125.833 142.5,128.5C 138.297,130.222 134.797,129.222 132,125.5C 130.476,123.102 128.976,120.769 127.5,118.5C 126.746,113.537 126.413,108.537 126.5,103.5 Z"/></g>
<g><path style="opacity:1" fill="#122230" d="M 213.5,122.5 C 214.209,123.404 215.209,123.737 216.5,123.5C 217.78,125.434 218.446,127.267 218.5,129C 216.071,129.703 213.738,129.537 211.5,128.5C 211.854,126.459 211.854,124.626 211.5,123C 212.094,122.536 212.761,122.369 213.5,122.5 Z"/></g>
<g><path style="opacity:1" fill="#102c20" d="M 109.5,108.5 C 110.583,108.461 111.583,108.127 112.5,107.5C 114.457,110.017 117.124,111.184 120.5,111C 121.252,111.671 121.586,112.504 121.5,113.5C 116.976,111.869 112.309,110.869 107.5,110.5C 103.366,109.515 99.0323,109.182 94.5,109.5C 94.0797,119.599 94.7464,129.599 96.5,139.5C 94.8267,138.657 93.66,137.324 93,135.5C 92.8041,127.118 92.3041,118.785 91.5,110.5C 91.9767,109.522 92.6433,108.689 93.5,108C 98.8613,107.391 104.195,107.558 109.5,108.5 Z"/></g>
<g><path style="opacity:1" fill="#2a232e" d="M 159.5,95.5 C 160.793,96.842 161.626,98.5087 162,100.5C 162.499,104.821 162.666,109.154 162.5,113.5C 162.821,114.817 163.154,116.151 163.5,117.5C 161.887,120.612 160.887,123.945 160.5,127.5C 160.5,128.167 160.167,128.5 159.5,128.5C 156.99,129.783 154.323,130.783 151.5,131.5C 149.5,131.5 147.5,131.5 145.5,131.5C 145.5,130.5 145.5,129.5 145.5,128.5C 154.307,129.051 159.307,124.718 160.5,115.5C 161.833,111.167 161.833,106.833 160.5,102.5C 160.326,100.139 159.993,97.8056 159.5,95.5 Z"/></g>
<g><path style="opacity:0.016" fill="#00403f" d="M 211.5,128.5 C 210.833,129.167 210.833,129.167 211.5,128.5 Z"/></g>
<g><path style="opacity:1" fill="#a6ca77" d="M 192.5,132.5 C 192.167,132.5 191.833,132.5 191.5,132.5C 191.5,131.833 191.5,131.167 191.5,130.5C 192.244,126.881 192.577,123.215 192.5,119.5C 192.5,116.5 192.5,113.5 192.5,110.5C 186.828,110.76 181.161,111.093 175.5,111.5C 176.609,110.71 177.942,110.21 179.5,110C 184.155,109.501 188.821,109.334 193.5,109.5C 193.799,117.253 193.466,124.92 192.5,132.5 Z"/></g>
<g><path style="opacity:0.008" fill="#071615" d="M 214.5,131.5 C 214.897,130.475 215.563,130.308 216.5,131C 215.906,131.464 215.239,131.631 214.5,131.5 Z"/></g>
<g><path style="opacity:1" fill="#1e4129" d="M 159.5,128.5 C 157.709,131.321 155.209,133.321 152,134.5C 151.503,137.146 151.336,139.813 151.5,142.5C 150.213,138.935 150.213,135.268 151.5,131.5C 154.323,130.783 156.99,129.783 159.5,128.5 Z"/></g>
<g><path style="opacity:1" fill="#8cbb5d" d="M 162.5,125.5 C 162.328,126.492 162.662,127.158 163.5,127.5C 163.489,129.017 162.823,130.184 161.5,131C 163.473,131.495 165.473,131.662 167.5,131.5C 167.5,130.5 167.5,129.5 167.5,128.5C 170.817,127.779 174.151,127.612 177.5,128C 179.155,129.444 179.822,131.278 179.5,133.5C 178.5,133.5 177.5,133.5 176.5,133.5C 178.256,129.419 176.923,127.919 172.5,129C 165.472,133.511 158.472,138.011 151.5,142.5C 151.336,139.813 151.503,137.146 152,134.5C 155.209,133.321 157.709,131.321 159.5,128.5C 160.167,128.5 160.5,128.167 160.5,127.5C 161.167,126.833 161.833,126.167 162.5,125.5 Z"/></g>
<g><path style="opacity:0.004" fill="#000001" d="M 212.5,132.5 C 211.833,131.167 211.833,131.167 212.5,132.5 Z"/></g>
<g><path style="opacity:1" fill="#0c233a" d="M 203.5,120.5 C 204.393,122.903 205.06,125.403 205.5,128C 204.356,134.885 203.023,141.719 201.5,148.5C 199.397,149.98 199.397,151.147 201.5,152C 198.415,152.985 196.915,155.152 197,158.5C 196.124,160.635 194.624,161.969 192.5,162.5C 191.504,162.414 190.671,162.748 190,163.5C 189,159.833 187.333,159.5 185,162.5C 185.077,161.17 185.577,159.836 186.5,158.5C 186.253,157.287 185.586,156.62 184.5,156.5C 185.779,153.888 187.445,151.555 189.5,149.5C 191.017,149.511 192.184,150.177 193,151.5C 195.316,143.713 196.15,135.713 195.5,127.5C 196.833,127.5 198.167,127.5 199.5,127.5C 199.343,124.397 198.509,121.731 197,119.5C 200,116.797 202.167,117.13 203.5,120.5 Z"/></g>
<g><path style="opacity:0.004" fill="#000000" d="M 218.5,134.5 C 219.833,135.167 219.833,135.167 218.5,134.5 Z"/></g>
<g><path style="opacity:1" fill="#112134" d="M 74.5,130.5 C 76.1628,132.438 76.8294,134.772 76.5,137.5C 74.6951,138.909 72.6951,139.409 70.5,139C 70.6932,137.355 70.8598,135.521 71,133.5C 72.1451,132.364 73.3117,131.364 74.5,130.5 Z"/></g>
<g><path style="opacity:0.004" fill="#fefffe" d="M 8.5,136.5 C 9.83333,137.167 9.83333,137.167 8.5,136.5 Z"/></g>
<g><path style="opacity:0.004" fill="#fefffe" d="M 80.5,136.5 C 81.8333,137.167 81.8333,137.167 80.5,136.5 Z"/></g>
<g><path style="opacity:1" fill="#8abd4a" d="M 96.5,121.5 C 97.21,123.893 97.8767,126.393 98.5,129C 102.018,130.585 105.518,132.085 109,133.5C 109.173,129.459 109.673,125.459 110.5,121.5C 111.429,122.689 111.762,124.022 111.5,125.5C 114.247,125.187 116.914,125.52 119.5,126.5C 120.246,127.736 120.579,129.07 120.5,130.5C 117.766,127.857 114.433,126.857 110.5,127.5C 110.142,130.898 110.808,134.065 112.5,137C 112.257,137.902 111.923,138.735 111.5,139.5C 111.265,140.097 110.765,140.43 110,140.5C 105.882,139.085 101.715,137.751 97.5,136.5C 96.6708,131.547 96.3375,126.547 96.5,121.5 Z"/></g>
<g><path style="opacity:0.925" fill="#13202e" d="M 214.5,131.5 C 216.076,132.143 217.41,133.143 218.5,134.5C 217.612,137.987 215.279,139.32 211.5,138.5C 211.325,136.379 211.659,134.379 212.5,132.5C 213.167,132.167 213.833,131.833 214.5,131.5 Z"/></g>
<g><path style="opacity:0.012" fill="#000055" d="M 76.5,137.5 C 77.8333,138.167 77.8333,138.167 76.5,137.5 Z"/></g>
<g><path style="opacity:1" fill="#113024" d="M 176.5,133.5 C 170.314,136.422 164.648,140.089 159.5,144.5C 156.833,145.833 154.167,147.167 151.5,148.5C 151.167,148.5 150.833,148.5 150.5,148.5C 151.174,146.976 152.174,145.642 153.5,144.5C 152.757,143.818 152.091,143.151 151.5,142.5C 158.472,138.011 165.472,133.511 172.5,129C 176.923,127.919 178.256,129.419 176.5,133.5 Z"/></g>
<g><path style="opacity:1" fill="#85b758" d="M 126.5,126.5 C 128.993,130.097 132.326,132.763 136.5,134.5C 137.833,137.167 137.833,139.833 136.5,142.5C 130.031,138.53 123.698,134.363 117.5,130C 115.655,128.872 113.655,128.372 111.5,128.5C 111.178,130.722 111.845,132.556 113.5,134C 118.406,136.942 123.072,140.109 127.5,143.5C 128.211,145.03 129.211,146.363 130.5,147.5C 130.278,150.076 128.945,150.91 126.5,150C 124.551,148.165 122.217,146.999 119.5,146.5C 118.754,145.264 118.421,143.93 118.5,142.5C 117.167,142.5 115.833,142.5 114.5,142.5C 114.649,141.448 114.483,140.448 114,139.5C 113.23,140.598 112.397,140.598 111.5,139.5C 111.923,138.735 112.257,137.902 112.5,137C 110.808,134.065 110.142,130.898 110.5,127.5C 114.433,126.857 117.766,127.857 120.5,130.5C 122.117,131.038 123.784,131.371 125.5,131.5C 125.5,130.167 125.5,128.833 125.5,127.5C 126.167,127.5 126.5,127.167 126.5,126.5 Z"/></g>
<g><path style="opacity:1" fill="#80b951" d="M 191.5,130.5 C 191.5,131.167 191.5,131.833 191.5,132.5C 191.403,135.594 190.403,138.26 188.5,140.5C 181.825,139.186 178.491,141.853 178.5,148.5C 177.5,148.5 176.5,148.5 175.5,148.5C 175.808,146.076 175.474,143.743 174.5,141.5C 172.885,142.154 171.218,142.654 169.5,143C 168.833,144.333 168.167,145.667 167.5,147C 164.557,147.29 162.057,148.456 160,150.5C 156.897,148.888 156.73,146.888 159.5,144.5C 164.648,140.089 170.314,136.422 176.5,133.5C 175.278,137.462 176.945,139.129 181.5,138.5C 181.5,137.167 181.5,135.833 181.5,134.5C 183.806,134.993 186.139,135.326 188.5,135.5C 188.273,133.067 189.273,131.401 191.5,130.5 Z"/></g>
<g><path style="opacity:0.008" fill="#000000" d="M 209.5,139.5 C 210.833,140.167 210.833,140.167 209.5,139.5 Z"/></g>
<g><path style="opacity:0.004" fill="#fefffe" d="M 23.5,140.5 C 24.8333,141.167 24.8333,141.167 23.5,140.5 Z"/></g>
<g><path style="opacity:1" fill="#82bb5e" d="M 107.5,110.5 C 103.774,110.177 100.107,110.511 96.5,111.5C 95.2243,114.303 95.2243,116.97 96.5,119.5C 96.5,120.167 96.5,120.833 96.5,121.5C 96.3375,126.547 96.6708,131.547 97.5,136.5C 101.715,137.751 105.882,139.085 110,140.5C 110.765,140.43 111.265,140.097 111.5,139.5C 112.397,140.598 113.23,140.598 114,139.5C 114.483,140.448 114.649,141.448 114.5,142.5C 113.527,144.948 113.194,147.615 113.5,150.5C 111.856,150.714 110.356,150.38 109,149.5C 109.667,141.755 106.167,138.422 98.5,139.5C 98.1667,139.5 97.8333,139.5 97.5,139.5C 97.1667,139.5 96.8333,139.5 96.5,139.5C 94.7464,129.599 94.0797,119.599 94.5,109.5C 99.0323,109.182 103.366,109.515 107.5,110.5 Z"/></g>
<g><path style="opacity:1" fill="#112d27" d="M 121.5,113.5 C 122.167,113.5 122.833,113.5 123.5,113.5C 123.5,114.833 123.5,116.167 123.5,117.5C 124.959,117.433 126.292,117.766 127.5,118.5C 127.575,121.206 127.908,123.873 128.5,126.5C 129.552,126.351 130.552,126.517 131.5,127C 132.698,129.698 134.698,131.531 137.5,132.5C 138.489,136.107 138.823,139.774 138.5,143.5C 137.127,143.657 135.793,143.49 134.5,143C 132.197,140.866 129.531,139.366 126.5,138.5C 125.479,139.002 125.312,139.668 126,140.5C 128.97,141.976 131.47,143.976 133.5,146.5C 131.517,145.529 129.517,144.529 127.5,143.5C 123.072,140.109 118.406,136.942 113.5,134C 111.845,132.556 111.178,130.722 111.5,128.5C 113.655,128.372 115.655,128.872 117.5,130C 123.698,134.363 130.031,138.53 136.5,142.5C 137.833,139.833 137.833,137.167 136.5,134.5C 132.326,132.763 128.993,130.097 126.5,126.5C 124.241,122.391 122.575,118.057 121.5,113.5 Z"/></g>
<g><path style="opacity:0.004" fill="#fefffe" d="M 65.5,141.5 C 66.8333,142.167 66.8333,142.167 65.5,141.5 Z"/></g>
<g><path style="opacity:1" fill="#0c2237" d="M 94.5,140.5 C 94.1742,142.661 93.1742,144.494 91.5,146C 92.7441,146.456 93.5774,145.956 94,144.5C 94.4828,145.448 94.6495,146.448 94.5,147.5C 89.0069,148.306 88.3402,150.473 92.5,154C 93.448,154.483 94.448,154.649 95.5,154.5C 95.3398,156.199 95.5065,157.866 96,159.5C 98.5378,161.995 100.038,164.995 100.5,168.5C 99.448,168.649 98.448,168.483 97.5,168C 98.03,165.864 97.1967,164.03 95,162.5C 93.3335,163.34 93.1669,162.84 94.5,161C 93.1667,159.667 91.8333,158.333 90.5,157C 90.8333,156.667 91.1667,156.333 91.5,156C 89.5,152.667 87.5,149.333 85.5,146C 85.9198,142.471 85.2531,138.971 83.5,135.5C 83.4088,131.527 83.7421,127.527 84.5,123.5C 85.209,122.596 86.209,122.263 87.5,122.5C 87.5,124.167 87.5,125.833 87.5,127.5C 88.5,127.5 89.5,127.5 90.5,127.5C 90.2739,130.249 90.6072,132.916 91.5,135.5C 90.23,137.548 89.8967,139.548 90.5,141.5C 91.2508,140.624 91.7508,139.624 92,138.5C 92.9947,139.066 93.828,139.733 94.5,140.5 Z"/></g>
<g><path style="opacity:0.004" fill="#fefffe" d="M 242.5,141.5 C 243.833,142.167 243.833,142.167 242.5,141.5 Z"/></g>
<g><path style="opacity:1" fill="#142532" d="M 77.5,147.5 C 75.7839,147.371 74.1172,147.038 72.5,146.5C 71.2892,141.615 73.1226,139.948 78,141.5C 78.6776,143.598 78.5109,145.598 77.5,147.5 Z"/></g>
<g><path style="opacity:1" fill="#152732" d="M 127.5,118.5 C 128.976,120.769 130.476,123.102 132,125.5C 134.797,129.222 138.297,130.222 142.5,128.5C 142.5,132.167 142.5,135.833 142.5,139.5C 141.685,138.571 140.852,137.571 140,136.5C 139.231,139.099 139.398,141.599 140.5,144C 138.137,144.589 137.137,146.089 137.5,148.5C 137.167,148.5 136.833,148.5 136.5,148.5C 135.29,148.068 134.29,147.401 133.5,146.5C 131.47,143.976 128.97,141.976 126,140.5C 125.312,139.668 125.479,139.002 126.5,138.5C 129.531,139.366 132.197,140.866 134.5,143C 135.793,143.49 137.127,143.657 138.5,143.5C 138.823,139.774 138.489,136.107 137.5,132.5C 134.698,131.531 132.698,129.698 131.5,127C 130.552,126.517 129.552,126.351 128.5,126.5C 127.908,123.873 127.575,121.206 127.5,118.5 Z"/></g>
<g><path style="opacity:0.744" fill="#0e1e2d" d="M 212.5,139.5 C 218.738,142.354 218.738,145.021 212.5,147.5C 211.026,146.564 210.026,145.23 209.5,143.5C 210.524,142.148 211.524,140.815 212.5,139.5 Z"/></g>
<g><path style="opacity:0.016" fill="#000040" d="M 72.5,146.5 C 71.8333,147.167 71.8333,147.167 72.5,146.5 Z"/></g>
<g><path style="opacity:0.004" fill="#000000" d="M 202.5,146.5 C 203.833,147.167 203.833,147.167 202.5,146.5 Z"/></g>
<g><path style="opacity:0.008" fill="#000000" d="M 214.5,147.5 C 215.833,148.167 215.833,148.167 214.5,147.5 Z"/></g>
<g><path style="opacity:1" fill="#4d9c56" d="M 188.5,140.5 C 185.427,144.575 182.76,148.909 180.5,153.5C 177.522,154.649 174.522,154.649 171.5,153.5C 169.208,155.449 166.541,156.449 163.5,156.5C 159.462,155.905 155.462,155.238 151.5,154.5C 151.5,152.5 151.5,150.5 151.5,148.5C 154.167,147.167 156.833,145.833 159.5,144.5C 156.73,146.888 156.897,148.888 160,150.5C 162.057,148.456 164.557,147.29 167.5,147C 168.167,145.667 168.833,144.333 169.5,143C 171.218,142.654 172.885,142.154 174.5,141.5C 175.474,143.743 175.808,146.076 175.5,148.5C 176.5,148.5 177.5,148.5 178.5,148.5C 178.491,141.853 181.825,139.186 188.5,140.5 Z"/></g>
<g><path style="opacity:0.004" fill="#000000" d="M 201.5,148.5 C 202.833,149.167 202.833,149.167 201.5,148.5 Z"/></g>
<g><path style="opacity:0.004" fill="#fefffe" d="M 32.5,149.5 C 33.8333,150.167 33.8333,150.167 32.5,149.5 Z"/></g>
<g><path style="opacity:1" fill="#509e51" d="M 98.5,139.5 C 106.167,138.422 109.667,141.755 109,149.5C 110.356,150.38 111.856,150.714 113.5,150.5C 113.194,147.615 113.527,144.948 114.5,142.5C 115.833,142.5 117.167,142.5 118.5,142.5C 118.421,143.93 118.754,145.264 119.5,146.5C 122.217,146.999 124.551,148.165 126.5,150C 128.945,150.91 130.278,150.076 130.5,147.5C 135.78,149.701 135.613,151.035 130,151.5C 127.648,151.695 125.648,151.028 124,149.5C 122.294,150.308 121.461,151.641 121.5,153.5C 119.833,153.5 118.167,153.5 116.5,153.5C 117.051,150.193 117.384,146.86 117.5,143.5C 116.5,143.5 115.5,143.5 114.5,143.5C 115.628,148.419 114.128,152.085 110,154.5C 107.673,150.936 106.506,146.936 106.5,142.5C 104.473,142.662 102.473,142.495 100.5,142C 99.244,141.583 98.5774,140.75 98.5,139.5 Z"/></g>
<g><path style="opacity:1" fill="#10202d" d="M 208.5,154.5 C 208.082,153.778 207.416,153.278 206.5,153C 208.833,147.643 211.5,147.309 214.5,152C 213.123,154.869 211.123,155.702 208.5,154.5 Z"/></g>
<g><path style="opacity:0.035" fill="#001515" d="M 72.5,150.5 C 73.525,150.897 73.6917,151.563 73,152.5C 72.5357,151.906 72.369,151.239 72.5,150.5 Z"/></g>
<g><path style="opacity:0.008" fill="#000000" d="M 199.5,153.5 C 200.833,154.167 200.833,154.167 199.5,153.5 Z"/></g>
<g><path style="opacity:0.039" fill="#1a1a33" d="M 79.5,154.5 C 80.8333,155.167 80.8333,155.167 79.5,154.5 Z"/></g>
<g><path style="opacity:1" fill="#4a9a60" d="M 97.5,139.5 C 97.8333,139.5 98.1667,139.5 98.5,139.5C 98.5774,140.75 99.244,141.583 100.5,142C 102.473,142.495 104.473,142.662 106.5,142.5C 106.506,146.936 107.673,150.936 110,154.5C 114.128,152.085 115.628,148.419 114.5,143.5C 115.5,143.5 116.5,143.5 117.5,143.5C 117.384,146.86 117.051,150.193 116.5,153.5C 118.167,153.5 119.833,153.5 121.5,153.5C 121.461,151.641 122.294,150.308 124,149.5C 125.648,151.028 127.648,151.695 130,151.5C 135.613,151.035 135.78,149.701 130.5,147.5C 129.211,146.363 128.211,145.03 127.5,143.5C 129.517,144.529 131.517,145.529 133.5,146.5C 134.29,147.401 135.29,148.068 136.5,148.5C 136.5,150.167 136.5,151.833 136.5,153.5C 136.167,153.5 135.833,153.5 135.5,153.5C 129.974,152.201 124.641,152.868 119.5,155.5C 116.31,154.358 113.143,154.358 110,155.5C 108.005,153.77 105.838,152.437 103.5,151.5C 100.442,148.052 98.4424,144.052 97.5,139.5 Z"/></g>
<g><path style="opacity:0.012" fill="#000000" d="M 208.5,154.5 C 207.833,155.167 207.833,155.167 208.5,154.5 Z"/></g>
<g><path style="opacity:1" fill="#0c253e" d="M 94.5,140.5 C 95.3844,143.023 96.2177,145.69 97,148.5C 99.0693,150.085 101.236,151.419 103.5,152.5C 104.588,154.583 105.588,156.749 106.5,159C 105.262,158.923 104.262,159.089 103.5,159.5C 105.174,161.43 105.507,163.43 104.5,165.5C 103.789,167.201 102.455,168.201 100.5,168.5C 100.038,164.995 98.5378,161.995 96,159.5C 95.5065,157.866 95.3398,156.199 95.5,154.5C 94.448,154.649 93.448,154.483 92.5,154C 88.3402,150.473 89.0069,148.306 94.5,147.5C 94.6495,146.448 94.4828,145.448 94,144.5C 93.5774,145.956 92.7441,146.456 91.5,146C 93.1742,144.494 94.1742,142.661 94.5,140.5 Z"/></g>
<g><path style="opacity:1" fill="#48936c" d="M 191.5,132.5 C 191.833,132.5 192.167,132.5 192.5,132.5C 191.307,144.352 185.64,153.352 175.5,159.5C 175.5,158.167 175.5,156.833 175.5,155.5C 172.085,155.261 168.919,155.928 166,157.5C 164.93,157.472 164.097,157.139 163.5,156.5C 166.541,156.449 169.208,155.449 171.5,153.5C 174.522,154.649 177.522,154.649 180.5,153.5C 182.76,148.909 185.427,144.575 188.5,140.5C 190.403,138.26 191.403,135.594 191.5,132.5 Z"/></g>
<g><path style="opacity:0.004" fill="#fefffe" d="M 218.5,155.5 C 219.833,156.167 219.833,156.167 218.5,155.5 Z"/></g>
<g><path style="opacity:0.008" fill="#000000" d="M 77.5,156.5 C 76.8333,157.167 76.8333,157.167 77.5,156.5 Z"/></g>
<g><path style="opacity:1" fill="#378a65" d="M 103.5,152.5 C 103.5,152.167 103.5,151.833 103.5,151.5C 105.838,152.437 108.005,153.77 110,155.5C 113.143,154.358 116.31,154.358 119.5,155.5C 124.641,152.868 129.974,152.201 135.5,153.5C 131.041,154.646 126.708,156.313 122.5,158.5C 121.583,157.873 120.583,157.539 119.5,157.5C 116.921,157.394 114.588,158.061 112.5,159.5C 109.214,157.549 106.214,155.215 103.5,152.5 Z"/></g>
<g><path style="opacity:1" fill="#237565" d="M 151.5,154.5 C 155.462,155.238 159.462,155.905 163.5,156.5C 164.097,157.139 164.93,157.472 166,157.5C 168.919,155.928 172.085,155.261 175.5,155.5C 175.5,156.833 175.5,158.167 175.5,159.5C 175.5,160.167 175.167,160.5 174.5,160.5C 167.044,162.307 159.378,162.973 151.5,162.5C 151.5,159.833 151.5,157.167 151.5,154.5 Z"/></g>
<g><path style="opacity:0.848" fill="#121f2b" d="M 77.5,147.5 C 80.4947,149.143 81.1614,151.477 79.5,154.5C 78.1667,154.833 78.1667,155.167 79.5,155.5C 82.7337,156.089 84.067,158.089 83.5,161.5C 82.0937,161.973 81.427,162.973 81.5,164.5C 80.7627,162.618 79.5961,161.952 78,162.5C 75.9849,160.527 76.1516,158.86 78.5,157.5C 78.3764,156.893 78.0431,156.56 77.5,156.5C 76.653,155.034 75.3197,154.2 73.5,154C 74.4061,152.301 74.7394,150.467 74.5,148.5C 75.791,148.737 76.791,148.404 77.5,147.5 Z"/></g>
<g><path style="opacity:1" fill="#101f2e" d="M 207.5,163.5 C 206.833,163.167 206.167,162.833 205.5,162.5C 205.167,161.5 204.5,160.833 203.5,160.5C 204.128,157.045 206.128,155.878 209.5,157C 211.067,159.906 210.4,162.072 207.5,163.5 Z"/></g>
<g><path style="opacity:1" fill="#216463" d="M 136.5,148.5 C 136.833,148.5 137.167,148.5 137.5,148.5C 137.5,154.5 137.5,160.5 137.5,166.5C 132.434,166.66 127.434,166.16 122.5,165C 118.654,163.914 115.32,162.081 112.5,159.5C 114.588,158.061 116.921,157.394 119.5,157.5C 119.137,159.911 120.137,161.411 122.5,162C 130.806,164.545 135.473,161.711 136.5,153.5C 136.5,151.833 136.5,150.167 136.5,148.5 Z"/></g>
<g><path style="opacity:0.004" fill="#000000" d="M 203.5,160.5 C 202.833,161.167 202.833,161.167 203.5,160.5 Z"/></g>
<g><path style="opacity:0.008" fill="#000000" d="M 83.5,161.5 C 84.2389,161.369 84.9056,161.536 85.5,162C 84.5632,162.692 83.8966,162.525 83.5,161.5 Z"/></g>
<g><path style="opacity:0.004" fill="#000000" d="M 193.5,163.5 C 194.833,164.167 194.833,164.167 193.5,163.5 Z"/></g>
<g><path style="opacity:0.004" fill="#000000" d="M 207.5,163.5 C 208.833,164.167 208.833,164.167 207.5,163.5 Z"/></g>
<g><path style="opacity:1" fill="#205d5f" d="M 150.5,148.5 C 150.833,148.5 151.167,148.5 151.5,148.5C 151.5,150.5 151.5,152.5 151.5,154.5C 151.5,157.167 151.5,159.833 151.5,162.5C 159.378,162.973 167.044,162.307 174.5,160.5C 173.833,161.167 173.167,161.833 172.5,162.5C 165.404,165.107 158.071,166.44 150.5,166.5C 150.5,164.833 150.5,163.167 150.5,161.5C 150.5,157.167 150.5,152.833 150.5,148.5 Z"/></g>
<g><path style="opacity:1" fill="#0e232e" d="M 82.5,168.5 C 82.0825,167.778 81.4158,167.278 80.5,167C 82.6192,166.658 82.9526,165.825 81.5,164.5C 83.7131,163.395 85.8797,163.395 88,164.5C 88.4393,168.868 86.606,170.201 82.5,168.5 Z"/></g>
<g><path style="opacity:1" fill="#0b243d" d="M 184.5,156.5 C 185.586,156.62 186.253,157.287 186.5,158.5C 185.577,159.836 185.077,161.17 185,162.5C 187.333,159.5 189,159.833 190,163.5C 190.671,162.748 191.504,162.414 192.5,162.5C 192.672,163.492 192.338,164.158 191.5,164.5C 187.994,165.639 185.494,167.306 184,169.5C 183.51,170.793 183.343,172.127 183.5,173.5C 187.5,173.5 191.5,173.5 195.5,173.5C 195.209,174.649 194.376,175.316 193,175.5C 180.99,175.42 168.823,175.42 156.5,175.5C 154.502,174.852 152.502,174.019 150.5,173C 151.191,171.933 151.691,170.766 152,169.5C 154.77,170.325 157.437,170.659 160,170.5C 161.399,169.773 162.899,169.273 164.5,169C 167.905,167.531 171.072,165.697 174,163.5C 177.264,164.527 180.097,163.694 182.5,161C 181.748,160.329 181.414,159.496 181.5,158.5C 182.5,157.833 183.5,157.167 184.5,156.5 Z"/></g>
<g><path style="opacity:1" fill="#08293b" d="M 137.5,148.5 C 138.88,148.962 139.547,149.962 139.5,151.5C 138.865,154.87 138.532,158.203 138.5,161.5C 139.325,162.386 140.325,162.719 141.5,162.5C 141.5,165.5 141.5,168.5 141.5,171.5C 139.302,171.591 138.969,170.925 140.5,169.5C 140.134,168.305 139.301,167.639 138,167.5C 134.944,168.077 131.944,168.743 129,169.5C 123.49,167.387 117.99,165.387 112.5,163.5C 109.722,164.84 107.055,165.507 104.5,165.5C 105.507,163.43 105.174,161.43 103.5,159.5C 104.262,159.089 105.262,158.923 106.5,159C 105.588,156.749 104.588,154.583 103.5,152.5C 106.214,155.215 109.214,157.549 112.5,159.5C 115.32,162.081 118.654,163.914 122.5,165C 127.434,166.16 132.434,166.66 137.5,166.5C 137.5,160.5 137.5,154.5 137.5,148.5 Z"/></g>
<g><path style="opacity:1" fill="#227564" d="M 135.5,153.5 C 135.833,153.5 136.167,153.5 136.5,153.5C 135.473,161.711 130.806,164.545 122.5,162C 120.137,161.411 119.137,159.911 119.5,157.5C 120.583,157.539 121.583,157.873 122.5,158.5C 126.708,156.313 131.041,154.646 135.5,153.5 Z"/></g>
<g><path style="opacity:0.012" fill="#000000" d="M 82.5,168.5 C 81.8333,169.167 81.8333,169.167 82.5,168.5 Z"/></g>
<g><path style="opacity:1" fill="#0a243b" d="M 140.5,169.5 C 135.436,170.393 130.269,171.393 125,172.5C 120.451,172.505 115.784,172.172 111,171.5C 109.294,172.308 108.461,173.641 108.5,175.5C 102.632,175.614 96.6316,175.28 90.5,174.5C 91.6119,173.735 92.2786,172.735 92.5,171.5C 93.1667,171.5 93.8333,171.5 94.5,171.5C 95.9187,172.451 97.5853,172.784 99.5,172.5C 99.4326,171.041 99.7659,169.708 100.5,168.5C 102.455,168.201 103.789,167.201 104.5,165.5C 107.055,165.507 109.722,164.84 112.5,163.5C 117.99,165.387 123.49,167.387 129,169.5C 131.944,168.743 134.944,168.077 138,167.5C 139.301,167.639 140.134,168.305 140.5,169.5 Z"/></g>
<g><path style="opacity:0.016" fill="#000000" d="M 205.5,168.5 C 206.833,169.167 206.833,169.167 205.5,168.5 Z"/></g>
<g><path style="opacity:1" fill="#0a263c" d="M 150.5,161.5 C 150.5,163.167 150.5,164.833 150.5,166.5C 158.071,166.44 165.404,165.107 172.5,162.5C 175.476,161.21 178.476,159.877 181.5,158.5C 181.414,159.496 181.748,160.329 182.5,161C 180.097,163.694 177.264,164.527 174,163.5C 171.072,165.697 167.905,167.531 164.5,169C 162.899,169.273 161.399,169.773 160,170.5C 157.437,170.659 154.77,170.325 152,169.5C 151.691,170.766 151.191,171.933 150.5,173C 152.502,174.019 154.502,174.852 156.5,175.5C 147.951,175.542 145.284,171.709 148.5,164C 147.277,157.602 146.61,151.102 146.5,144.5C 147.5,144.5 148.5,144.5 149.5,144.5C 149.178,150.358 149.511,156.025 150.5,161.5 Z"/></g>
<g><path style="opacity:0.016" fill="#000000" d="M 94.5,170.5 C 95.8333,171.167 95.8333,171.167 94.5,170.5 Z"/></g>
<g><path style="opacity:0.012" fill="#000000" d="M 96.5,171.5 C 96.8966,170.475 97.5632,170.308 98.5,171C 97.9056,171.464 97.2389,171.631 96.5,171.5 Z"/></g>
<g><path style="opacity:0.004" fill="#fefffe" d="M 11.5,171.5 C 12.8333,172.167 12.8333,172.167 11.5,171.5 Z"/></g>
<g><path style="opacity:1" fill="#0b243f" d="M 140.5,169.5 C 138.969,170.925 139.302,171.591 141.5,171.5C 141.167,172.833 140.833,174.167 140.5,175.5C 140.167,175.5 139.833,175.5 139.5,175.5C 129.167,175.5 118.833,175.5 108.5,175.5C 108.461,173.641 109.294,172.308 111,171.5C 115.784,172.172 120.451,172.505 125,172.5C 130.269,171.393 135.436,170.393 140.5,169.5 Z"/></g>
<g><path style="opacity:0.992" fill="#07202c" d="M 197.5,173.5 C 199.155,174.93 201.155,175.764 203.5,176C 204.252,176.671 204.586,177.504 204.5,178.5C 165.573,177.506 126.573,177.173 87.5,177.5C 104.833,176.833 122.167,176.167 139.5,175.5C 139.833,175.5 140.167,175.5 140.5,175.5C 159.485,176.375 178.485,176.708 197.5,176.5C 197.5,175.5 197.5,174.5 197.5,173.5 Z"/></g>
<g><path style="opacity:1" fill="#0a2334" d="M 145.5,131.5 C 147.5,131.5 149.5,131.5 151.5,131.5C 150.213,135.268 150.213,138.935 151.5,142.5C 152.091,143.151 152.757,143.818 153.5,144.5C 152.174,145.642 151.174,146.976 150.5,148.5C 150.5,152.833 150.5,157.167 150.5,161.5C 149.511,156.025 149.178,150.358 149.5,144.5C 148.5,144.5 147.5,144.5 146.5,144.5C 146.61,151.102 147.277,157.602 148.5,164C 145.284,171.709 147.951,175.542 156.5,175.5C 168.823,175.42 180.99,175.42 193,175.5C 194.376,175.316 195.209,174.649 195.5,173.5C 196.167,173.5 196.833,173.5 197.5,173.5C 197.5,174.5 197.5,175.5 197.5,176.5C 178.485,176.708 159.485,176.375 140.5,175.5C 140.833,174.167 141.167,172.833 141.5,171.5C 141.5,168.5 141.5,165.5 141.5,162.5C 140.325,162.719 139.325,162.386 138.5,161.5C 138.532,158.203 138.865,154.87 139.5,151.5C 139.547,149.962 138.88,148.962 137.5,148.5C 137.137,146.089 138.137,144.589 140.5,144C 139.398,141.599 139.231,139.099 140,136.5C 140.852,137.571 141.685,138.571 142.5,139.5C 142.333,150.172 142.5,160.839 143,171.5C 143.414,171.957 143.914,172.291 144.5,172.5C 145.499,158.85 145.833,145.183 145.5,131.5 Z"/></g>
<g><path style="opacity:1" fill="#0d1e2d" d="M 205.5,162.5 C 206.641,164.549 206.641,166.549 205.5,168.5C 204.163,169.315 203.163,170.482 202.5,172C 209.422,171.877 213.922,175.377 216,182.5C 216.667,189.5 216.667,196.5 216,203.5C 215.8,205.32 214.966,206.653 213.5,207.5C 209.9,206.821 210.233,205.987 214.5,205C 213.72,203.927 213.887,202.76 215,201.5C 215.499,196.511 215.666,191.511 215.5,186.5C 214.431,184.031 213.098,181.698 211.5,179.5C 210.163,182.39 208.163,183.057 205.5,181.5C 205.5,180.833 205.167,180.5 204.5,180.5C 204.918,179.778 205.584,179.278 206.5,179C 205.906,178.536 205.239,178.369 204.5,178.5C 204.586,177.504 204.252,176.671 203.5,176C 201.155,175.764 199.155,174.93 197.5,173.5C 196.833,173.5 196.167,173.5 195.5,173.5C 191.5,173.5 187.5,173.5 183.5,173.5C 183.343,172.127 183.51,170.793 184,169.5C 185.494,167.306 187.994,165.639 191.5,164.5C 190.925,166.411 189.925,168.078 188.5,169.5C 187.975,170.728 186.642,171.562 184.5,172C 186.265,172.64 187.932,172.473 189.5,171.5C 189.435,171.938 189.601,172.272 190,172.5C 193.333,171.833 196.667,171.167 200,170.5C 200.805,172.901 201.638,172.734 202.5,170C 199.507,168.754 199.007,166.587 201,163.5C 202.388,163.786 203.888,163.452 205.5,162.5 Z M 188.5,169.5 C 188.833,170.167 189.167,170.833 189.5,171.5C 187.932,172.473 186.265,172.64 184.5,172C 186.642,171.562 187.975,170.728 188.5,169.5 Z"/></g>
<g><path style="opacity:0.004" fill="#fefffe" d="M 233.5,175.5 C 234.833,176.167 234.833,176.167 233.5,175.5 Z"/></g>
<g><path style="opacity:0.004" fill="#fefffe" d="M 20.5,176.5 C 21.8333,177.167 21.8333,177.167 20.5,176.5 Z"/></g>
<g><path style="opacity:0.984" fill="#0a2131" d="M 92.5,171.5 C 92.2786,172.735 91.6119,173.735 90.5,174.5C 96.6316,175.28 102.632,175.614 108.5,175.5C 118.833,175.5 129.167,175.5 139.5,175.5C 122.167,176.167 104.833,176.833 87.5,177.5C 79.5,178.5 79.5,179.5 87.5,180.5C 88.5676,181.434 89.901,181.768 91.5,181.5C 88.3601,182.641 85.0267,182.808 81.5,182C 80.7511,180.266 80.2511,178.433 80,176.5C 78.955,177.373 78.1217,178.373 77.5,179.5C 76.2921,178.766 74.9587,178.433 73.5,178.5C 76.1115,175.564 79.1115,172.898 82.5,170.5C 82.8333,171.167 83.1667,171.833 83.5,172.5C 85.5598,170.108 87.7265,170.108 90,172.5C 90.6708,171.748 91.5041,171.414 92.5,171.5 Z"/></g>
<g><path style="opacity:0.004" fill="#fefffe" d="M 257.5,176.5 C 258.833,177.167 258.833,177.167 257.5,176.5 Z"/></g>
<g><path style="opacity:0.004" fill="#fefffe" d="M 71.5,177.5 C 72.8333,178.167 72.8333,178.167 71.5,177.5 Z"/></g>
<g><path style="opacity:0.009" fill="#000807" d="M 105.5,180.5 C 131.833,180.5 158.167,180.5 184.5,180.5C 181.154,181.271 177.654,181.938 174,182.5C 158.948,182.141 144.115,182.141 129.5,182.5C 121.5,181.833 113.5,181.167 105.5,180.5 Z"/></g>
<g><path style="opacity:0.991" fill="#062438" d="M 87.5,180.5 C 93.5,180.5 99.5,180.5 105.5,180.5C 113.5,181.167 121.5,181.833 129.5,182.5C 136.659,183.47 143.993,184.136 151.5,184.5C 144.695,184.799 137.862,184.799 131,184.5C 129.284,184.748 127.784,185.415 126.5,186.5C 123.537,184.999 120.37,184.333 117,184.5C 112.092,185.395 107.592,185.728 103.5,185.5C 103.881,184.069 104.881,183.236 106.5,183C 104.899,182.727 103.399,182.227 102,181.5C 98.5326,182.034 95.0326,182.034 91.5,181.5C 89.901,181.768 88.5676,181.434 87.5,180.5 Z"/></g>
<g><path style="opacity:0.991" fill="#082737" d="M 184.5,180.5 C 191.167,180.5 197.833,180.5 204.5,180.5C 205.167,180.5 205.5,180.833 205.5,181.5C 199.575,181.998 193.409,181.998 187,181.5C 184.625,181.818 183.458,183.151 183.5,185.5C 178.719,186.2 173.886,186.534 169,186.5C 167,183.833 165,183.833 163,186.5C 159.667,183.833 156.333,183.833 153,186.5C 152.722,185.584 152.222,184.918 151.5,184.5C 143.993,184.136 136.659,183.47 129.5,182.5C 144.115,182.141 158.948,182.141 174,182.5C 177.654,181.938 181.154,181.271 184.5,180.5 Z"/></g>
<g><path style="opacity:1" fill="#0a283d" d="M 215.5,186.5 C 213.958,187.301 212.292,187.634 210.5,187.5C 207.167,187.5 203.833,187.5 200.5,187.5C 201.263,186.732 202.263,186.232 203.5,186C 202.234,185.691 201.067,185.191 200,184.5C 195.454,185.565 191.121,185.565 187,184.5C 186.667,185.167 186.333,185.833 186,186.5C 185.329,185.748 184.496,185.414 183.5,185.5C 183.458,183.151 184.625,181.818 187,181.5C 193.409,181.998 199.575,181.998 205.5,181.5C 208.163,183.057 210.163,182.39 211.5,179.5C 213.098,181.698 214.431,184.031 215.5,186.5 Z"/></g>
<g><path style="opacity:0.004" fill="#fefffe" d="M 62.5,185.5 C 63.8333,186.167 63.8333,186.167 62.5,185.5 Z"/></g>
<g><path style="opacity:1" fill="#09283d" d="M 91.5,181.5 C 95.0326,182.034 98.5326,182.034 102,181.5C 103.399,182.227 104.899,182.727 106.5,183C 104.881,183.236 103.881,184.069 103.5,185.5C 100.686,184.454 98.3522,185.12 96.5,187.5C 90.5,187.5 84.5,187.5 78.5,187.5C 81.2583,186.033 80.925,185.367 77.5,185.5C 77.9349,183.297 77.9349,181.297 77.5,179.5C 78.1217,178.373 78.955,177.373 80,176.5C 80.2511,178.433 80.7511,180.266 81.5,182C 85.0267,182.808 88.3601,182.641 91.5,181.5 Z"/></g>
<g><path style="opacity:1" fill="#05273d" d="M 103.5,185.5 C 107.592,185.728 112.092,185.395 117,184.5C 120.37,184.333 123.537,184.999 126.5,186.5C 127.784,185.415 129.284,184.748 131,184.5C 137.862,184.799 144.695,184.799 151.5,184.5C 152.222,184.918 152.722,185.584 153,186.5C 156.333,183.833 159.667,183.833 163,186.5C 165,183.833 167,183.833 169,186.5C 173.886,186.534 178.719,186.2 183.5,185.5C 184.496,185.414 185.329,185.748 186,186.5C 186.333,185.833 186.667,185.167 187,184.5C 191.121,185.565 195.454,185.565 200,184.5C 201.067,185.191 202.234,185.691 203.5,186C 202.263,186.232 201.263,186.732 200.5,187.5C 165.833,187.5 131.167,187.5 96.5,187.5C 98.3522,185.12 100.686,184.454 103.5,185.5 Z"/></g>
<g><path style="opacity:1" fill="#487385" d="M 78.5,187.5 C 84.5,187.5 90.5,187.5 96.5,187.5C 131.167,187.5 165.833,187.5 200.5,187.5C 203.833,187.5 207.167,187.5 210.5,187.5C 210.5,187.833 210.5,188.167 210.5,188.5C 166.5,188.5 122.5,188.5 78.5,188.5C 78.1872,192.042 78.5206,195.375 79.5,198.5C 79.5,200.5 79.5,202.5 79.5,204.5C 77.9814,201.474 77.3148,198.141 77.5,194.5C 77.5034,191.975 77.8367,189.641 78.5,187.5 Z"/></g>
<g><path style="opacity:1" fill="#5e929f" d="M 210.5,188.5 C 210.5,191.833 210.5,195.167 210.5,198.5C 208.833,198.5 207.167,198.5 205.5,198.5C 205.5,197.833 205.5,197.167 205.5,196.5C 207.168,194.521 207.834,192.188 207.5,189.5C 193.563,189.661 179.563,189.661 165.5,189.5C 152.833,189.5 140.167,189.5 127.5,189.5C 111.819,189.167 96.1525,189.501 80.5,190.5C 79.1764,193.198 79.1764,195.864 80.5,198.5C 80.1667,198.5 79.8333,198.5 79.5,198.5C 78.5206,195.375 78.1872,192.042 78.5,188.5C 122.5,188.5 166.5,188.5 210.5,188.5 Z"/></g>
<g><path style="opacity:1" fill="#57949e" d="M 127.5,189.5 C 124.881,190.001 122.548,191.168 120.5,193C 121.707,194.3 122.374,195.8 122.5,197.5C 124.167,197.5 125.833,197.5 127.5,197.5C 127.5,196.167 127.5,194.833 127.5,193.5C 129.36,192.929 131.027,192.929 132.5,193.5C 131.4,194.605 130.733,195.938 130.5,197.5C 123.106,198.149 115.773,198.149 108.5,197.5C 105.167,197.5 101.833,197.5 98.5,197.5C 101.833,196.833 105.167,196.167 108.5,195.5C 108.672,194.508 108.338,193.842 107.5,193.5C 99.4259,191.427 91.4259,191.427 83.5,193.5C 82.1667,194.167 82.1667,194.833 83.5,195.5C 87.4198,196.098 90.7531,196.765 93.5,197.5C 89.6286,197.185 85.9619,197.518 82.5,198.5C 81.8333,198.5 81.1667,198.5 80.5,198.5C 79.1764,195.864 79.1764,193.198 80.5,190.5C 96.1525,189.501 111.819,189.167 127.5,189.5 Z"/></g>
<g><path style="opacity:1" fill="#5a949a" d="M 165.5,189.5 C 179.563,189.661 193.563,189.661 207.5,189.5C 207.834,192.188 207.168,194.521 205.5,196.5C 203.621,195.659 201.621,195.325 199.5,195.5C 199.5,197.167 199.5,198.833 199.5,200.5C 199.167,200.5 198.833,200.5 198.5,200.5C 197.01,198.72 195.01,198.054 192.5,198.5C 191.669,193.011 188.669,191.344 183.5,193.5C 182.295,194.577 181.628,195.91 181.5,197.5C 179.5,198.833 177.5,198.833 175.5,197.5C 174.217,192.751 171.217,191.418 166.5,193.5C 166.567,192.041 166.234,190.708 165.5,189.5 Z"/></g>
<g><path style="opacity:1" fill="#55949b" d="M 127.5,189.5 C 140.167,189.5 152.833,189.5 165.5,189.5C 166.234,190.708 166.567,192.041 166.5,193.5C 165.326,194.514 164.66,195.847 164.5,197.5C 162.5,198.833 160.5,198.833 158.5,197.5C 157.145,192.747 154.145,191.413 149.5,193.5C 148.575,194.357 147.908,195.357 147.5,196.5C 146.662,196.842 146.328,197.508 146.5,198.5C 144.833,198.5 143.167,198.5 141.5,198.5C 140.645,192.979 137.645,191.312 132.5,193.5C 131.027,192.929 129.36,192.929 127.5,193.5C 127.5,194.833 127.5,196.167 127.5,197.5C 125.833,197.5 124.167,197.5 122.5,197.5C 122.374,195.8 121.707,194.3 120.5,193C 122.548,191.168 124.881,190.001 127.5,189.5 Z"/></g>
<g><path style="opacity:1" fill="#033142" d="M 83.5,193.5 C 96.8333,194.167 96.8333,194.833 83.5,195.5C 82.1667,194.833 82.1667,194.167 83.5,193.5 Z"/></g>
<g><path style="opacity:1" fill="#012d3d" d="M 107.5,193.5 C 108.338,193.842 108.672,194.508 108.5,195.5C 104.774,195.823 101.107,195.489 97.5,194.5C 100.768,193.513 104.102,193.18 107.5,193.5 Z"/></g>
<g><path style="opacity:1" fill="#023543" d="M 112.5,193.5 C 114.924,193.192 117.257,193.526 119.5,194.5C 118.333,194.833 117.167,195.167 116,195.5C 114.319,195.392 113.152,194.725 112.5,193.5 Z"/></g>
<g><path style="opacity:0.231" fill="#072836" d="M 175.5,197.5 C 175.068,203.333 172.068,204.999 166.5,202.5C 165.05,201.15 164.383,199.484 164.5,197.5C 164.66,195.847 165.326,194.514 166.5,193.5C 171.217,191.418 174.217,192.751 175.5,197.5 Z M 168.5,195.5 C 174.258,196.391 174.758,198.391 170,201.5C 167.408,199.992 166.908,197.992 168.5,195.5 Z"/></g>
<g><path style="opacity:1" fill="#062835" d="M 141.5,198.5 C 141.269,201.063 139.935,202.73 137.5,203.5C 132.814,204.016 130.481,202.016 130.5,197.5C 130.733,195.938 131.4,194.605 132.5,193.5C 137.645,191.312 140.645,192.979 141.5,198.5 Z M 134.5,195.5 C 140.258,196.391 140.758,198.391 136,201.5C 133.408,199.992 132.908,197.992 134.5,195.5 Z"/></g>
<g><path style="opacity:1" fill="#072937" d="M 158.5,197.5 C 158.823,201.692 156.823,203.692 152.5,203.5C 148.187,203.174 146.52,200.841 147.5,196.5C 147.908,195.357 148.575,194.357 149.5,193.5C 154.145,191.413 157.145,192.747 158.5,197.5 Z M 151.5,195.5 C 157.258,196.391 157.758,198.391 153,201.5C 150.408,199.992 149.908,197.992 151.5,195.5 Z"/></g>
<g><path style="opacity:1" fill="#062834" d="M 192.5,198.5 C 192.379,202.089 190.546,203.756 187,203.5C 182.914,203.58 181.081,201.58 181.5,197.5C 181.628,195.91 182.295,194.577 183.5,193.5C 188.669,191.344 191.669,193.011 192.5,198.5 Z M 185.5,195.5 C 187.948,195.085 189.281,196.085 189.5,198.5C 187.743,202.169 185.743,202.169 183.5,198.5C 184.193,197.482 184.859,196.482 185.5,195.5 Z"/></g>
<g><path style="opacity:0.999" fill="#0a293d" d="M 215.5,186.5 C 215.666,191.511 215.499,196.511 215,201.5C 213.887,202.76 213.72,203.927 214.5,205C 210.233,205.987 209.9,206.821 213.5,207.5C 212.699,210.572 210.699,212.238 207.5,212.5C 205.909,211.781 204.409,210.781 203,209.5C 201.302,210.733 199.302,211.4 197,211.5C 194.705,211.453 192.871,210.787 191.5,209.5C 194.713,209.81 197.713,209.477 200.5,208.5C 206.833,208.167 210.167,204.833 210.5,198.5C 210.5,195.167 210.5,191.833 210.5,188.5C 210.5,188.167 210.5,187.833 210.5,187.5C 212.292,187.634 213.958,187.301 215.5,186.5 Z"/></g>
<g><path style="opacity:1" fill="#09364a" d="M 93.5,197.5 C 93.5,198.5 93.5,199.5 93.5,200.5C 89.351,201.08 85.6843,200.414 82.5,198.5C 85.9619,197.518 89.6286,197.185 93.5,197.5 Z"/></g>
<g><path style="opacity:1" fill="#073649" d="M 98.5,197.5 C 101.833,197.5 105.167,197.5 108.5,197.5C 108.443,198.609 108.11,199.609 107.5,200.5C 103.833,200.5 100.167,200.5 96.5,200.5C 96.2852,198.821 96.9519,197.821 98.5,197.5 Z"/></g>
<g><path style="opacity:1" fill="#b4706b" d="M 205.5,196.5 C 205.5,197.167 205.5,197.833 205.5,198.5C 205.586,199.496 205.252,200.329 204.5,201C 202.613,201.78 200.946,201.613 199.5,200.5C 199.5,198.833 199.5,197.167 199.5,195.5C 201.621,195.325 203.621,195.659 205.5,196.5 Z"/></g>
<g><path style="opacity:1" fill="#06364a" d="M 107.5,201.5 C 108.404,202.209 108.737,203.209 108.5,204.5C 104.833,204.5 101.167,204.5 97.5,204.5C 97.5,203.5 97.5,202.5 97.5,201.5C 100.833,201.5 104.167,201.5 107.5,201.5 Z"/></g>
<g><path style="opacity:1" fill="#2d727d" d="M 141.5,198.5 C 143.167,198.5 144.833,198.5 146.5,198.5C 146.157,201.817 147.491,204.151 150.5,205.5C 152.906,204.936 155.24,204.603 157.5,204.5C 159.029,204.529 160.196,205.196 161,206.5C 164.51,203.414 166.677,204.081 167.5,208.5C 159.5,208.5 151.5,208.5 143.5,208.5C 142.437,206.653 140.771,206.319 138.5,207.5C 136.209,207.378 134.209,206.545 132.5,205C 134.382,204.802 136.048,204.302 137.5,203.5C 139.935,202.73 141.269,201.063 141.5,198.5 Z"/></g>
<g><path style="opacity:1" fill="#2e707c" d="M 147.5,196.5 C 146.52,200.841 148.187,203.174 152.5,203.5C 156.823,203.692 158.823,201.692 158.5,197.5C 160.5,198.833 162.5,198.833 164.5,197.5C 164.383,199.484 165.05,201.15 166.5,202.5C 172.068,204.999 175.068,203.333 175.5,197.5C 177.5,198.833 179.5,198.833 181.5,197.5C 181.081,201.58 182.914,203.58 187,203.5C 190.546,203.756 192.379,202.089 192.5,198.5C 195.01,198.054 197.01,198.72 198.5,200.5C 196.832,202.479 196.166,204.812 196.5,207.5C 193.675,207.838 191.508,206.838 190,204.5C 188.887,205.711 187.72,205.711 186.5,204.5C 186.264,205.247 185.93,206.08 185.5,207C 181.975,207.179 178.641,207.679 175.5,208.5C 172.833,208.5 170.167,208.5 167.5,208.5C 166.677,204.081 164.51,203.414 161,206.5C 160.196,205.196 159.029,204.529 157.5,204.5C 155.24,204.603 152.906,204.936 150.5,205.5C 147.491,204.151 146.157,201.817 146.5,198.5C 146.328,197.508 146.662,196.842 147.5,196.5 Z"/></g>
<g><path style="opacity:1" fill="#3c7888" d="M 107.5,193.5 C 104.102,193.18 100.768,193.513 97.5,194.5C 101.107,195.489 104.774,195.823 108.5,195.5C 105.167,196.167 101.833,196.833 98.5,197.5C 96.9519,197.821 96.2852,198.821 96.5,200.5C 100.167,200.5 103.833,200.5 107.5,200.5C 107.5,200.833 107.5,201.167 107.5,201.5C 104.167,201.5 100.833,201.5 97.5,201.5C 97.5,202.5 97.5,203.5 97.5,204.5C 96.5284,202.507 95.1951,202.174 93.5,203.5C 93.0825,202.778 92.4158,202.278 91.5,202C 88.5184,201.502 85.5184,201.335 82.5,201.5C 82.5,202.5 82.5,203.5 82.5,204.5C 84.5,204.5 86.5,204.5 88.5,204.5C 88.5,205.5 88.5,206.5 88.5,207.5C 91.0593,207.198 93.3926,207.532 95.5,208.5C 92.1667,208.5 88.8333,208.5 85.5,208.5C 82.8021,208.155 80.8021,206.822 79.5,204.5C 79.5,202.5 79.5,200.5 79.5,198.5C 79.8333,198.5 80.1667,198.5 80.5,198.5C 81.1667,198.5 81.8333,198.5 82.5,198.5C 85.6843,200.414 89.351,201.08 93.5,200.5C 93.5,199.5 93.5,198.5 93.5,197.5C 90.7531,196.765 87.4198,196.098 83.5,195.5C 96.8333,194.833 96.8333,194.167 83.5,193.5C 91.4259,191.427 99.4259,191.427 107.5,193.5 Z"/></g>
<g><path style="opacity:1" fill="#03394c" d="M 93.5,203.5 C 92.0813,204.451 90.4147,204.784 88.5,204.5C 86.5,204.5 84.5,204.5 82.5,204.5C 82.5,203.5 82.5,202.5 82.5,201.5C 85.5184,201.335 88.5184,201.502 91.5,202C 92.4158,202.278 93.0825,202.778 93.5,203.5 Z"/></g>
<g><path style="opacity:1" fill="#2c6e7b" d="M 108.5,197.5 C 115.773,198.149 123.106,198.149 130.5,197.5C 130.481,202.016 132.814,204.016 137.5,203.5C 136.048,204.302 134.382,204.802 132.5,205C 134.209,206.545 136.209,207.378 138.5,207.5C 140.771,206.319 142.437,206.653 143.5,208.5C 127.5,208.5 111.5,208.5 95.5,208.5C 93.3926,207.532 91.0593,207.198 88.5,207.5C 88.5,206.5 88.5,205.5 88.5,204.5C 90.4147,204.784 92.0813,204.451 93.5,203.5C 95.1951,202.174 96.5284,202.507 97.5,204.5C 101.167,204.5 104.833,204.5 108.5,204.5C 108.737,203.209 108.404,202.209 107.5,201.5C 107.5,201.167 107.5,200.833 107.5,200.5C 108.11,199.609 108.443,198.609 108.5,197.5 Z"/></g>
<g><path style="opacity:1" fill="#34717e" d="M 205.5,198.5 C 207.167,198.5 208.833,198.5 210.5,198.5C 210.167,204.833 206.833,208.167 200.5,208.5C 192.167,208.5 183.833,208.5 175.5,208.5C 178.641,207.679 181.975,207.179 185.5,207C 185.93,206.08 186.264,205.247 186.5,204.5C 187.72,205.711 188.887,205.711 190,204.5C 191.508,206.838 193.675,207.838 196.5,207.5C 196.166,204.812 196.832,202.479 198.5,200.5C 198.833,200.5 199.167,200.5 199.5,200.5C 200.946,201.613 202.613,201.78 204.5,201C 205.252,200.329 205.586,199.496 205.5,198.5 Z"/></g>
<g><path style="opacity:0.004" fill="#fefffe" d="M 35.5,209.5 C 36.8333,210.167 36.8333,210.167 35.5,209.5 Z"/></g>
<g><path style="opacity:0.004" fill="#fefffe" d="M 65.5,209.5 C 66.8333,210.167 66.8333,210.167 65.5,209.5 Z"/></g>
<g><path style="opacity:1" fill="#053246" d="M 85.5,208.5 C 88.8333,208.5 92.1667,208.5 95.5,208.5C 111.5,208.5 127.5,208.5 143.5,208.5C 151.5,208.5 159.5,208.5 167.5,208.5C 170.167,208.5 172.833,208.5 175.5,208.5C 183.833,208.5 192.167,208.5 200.5,208.5C 197.713,209.477 194.713,209.81 191.5,209.5C 175.132,208.849 159.132,209.515 143.5,211.5C 127.515,211.423 112.015,211.423 97,211.5C 92.9198,211.043 89.0864,210.043 85.5,208.5 Z"/></g>
<g><path style="opacity:1" fill="#09263a" d="M 73.5,178.5 C 74.9587,178.433 76.2921,178.766 77.5,179.5C 77.9349,181.297 77.9349,183.297 77.5,185.5C 80.925,185.367 81.2583,186.033 78.5,187.5C 77.8367,189.641 77.5034,191.975 77.5,194.5C 77.3148,198.141 77.9814,201.474 79.5,204.5C 80.8021,206.822 82.8021,208.155 85.5,208.5C 89.0864,210.043 92.9198,211.043 97,211.5C 112.015,211.423 127.515,211.423 143.5,211.5C 143.5,212.167 143.5,212.833 143.5,213.5C 122.473,213.788 101.473,213.454 80.5,212.5C 78.6064,211.952 76.9397,210.952 75.5,209.5C 74.5428,207.082 73.2095,204.916 71.5,203C 72.3938,197.426 72.3938,191.426 71.5,185C 72.3972,182.913 73.0639,180.746 73.5,178.5 Z"/></g>
<g><path style="opacity:1" fill="#0a253e" d="M 191.5,209.5 C 192.871,210.787 194.705,211.453 197,211.5C 199.302,211.4 201.302,210.733 203,209.5C 204.409,210.781 205.909,211.781 207.5,212.5C 207.158,213.338 206.492,213.672 205.5,213.5C 184.94,213.438 164.274,213.438 143.5,213.5C 143.5,212.833 143.5,212.167 143.5,211.5C 159.132,209.515 175.132,208.849 191.5,209.5 Z"/></g>
<g><path style="opacity:0.547" fill="#091a2a" d="M 80.5,212.5 C 101.473,213.454 122.473,213.788 143.5,213.5C 164.274,213.438 184.94,213.438 205.5,213.5C 164.669,214.665 123.669,214.831 82.5,214C 81.5842,213.722 80.9175,213.222 80.5,212.5 Z"/></g>
<g><path style="opacity:0.004" fill="#fefffe" d="M 242.5,216.5 C 243.833,217.167 243.833,217.167 242.5,216.5 Z"/></g>
<g><path style="opacity:0.004" fill="#fefffe" d="M 134.5,223.5 C 135.833,224.167 135.833,224.167 134.5,223.5 Z"/></g>
<g><path style="opacity:0.004" fill="#fefffe" d="M 59.5,224.5 C 60.8333,225.167 60.8333,225.167 59.5,224.5 Z"/></g>
<g><path style="opacity:0.004" fill="#fefffe" d="M 23.5,228.5 C 24.8333,229.167 24.8333,229.167 23.5,228.5 Z"/></g>
<g><path style="opacity:0.004" fill="#fefffe" d="M 29.5,230.5 C 30.8333,231.167 30.8333,231.167 29.5,230.5 Z"/></g>
<g><path style="opacity:0.004" fill="#fefffe" d="M 149.5,234.5 C 150.833,235.167 150.833,235.167 149.5,234.5 Z"/></g>
<g><path style="opacity:0.004" fill="#fefffe" d="M 59.5,238.5 C 60.8333,239.167 60.8333,239.167 59.5,238.5 Z"/></g>
</svg>
